<?xml version="1.0" encoding="UTF-8"?>
<!DOCTYPE svg PUBLIC "-//W3C//DTD SVG 1.1//EN" "http://www.w3.org/Graphics/SVG/1.1/DTD/svg11.dtd">
<!-- Creator: CorelDRAW 2018 (64-Bit Not for commercial use) -->
<svg xmlns="http://www.w3.org/2000/svg" xml:space="preserve" width="9.2873mm" height="9.2283mm" version="1.1" style="shape-rendering:geometricPrecision; text-rendering:geometricPrecision; image-rendering:optimizeQuality; fill-rule:evenodd; clip-rule:evenodd"
viewBox="0 0 37.9 37.66"
 xmlns:xlink="http://www.w3.org/1999/xlink">
 <defs>
  <style type="text/css">
   <![CDATA[
    .fil0 {fill:#65AA33}
    .fil1 {fill:white}
   ]]>
  </style>
 </defs>
 <g id="Layer_x0020_1">
  <metadata id="CorelCorpID_0Corel-Layer"/>
  <g id="_1712745198064">
   <polygon class="fil0" points="-0,-0 37.9,-0 37.9,37.66 -0,37.66 "/>
   <g>
    <path class="fil1" d="M24.07 28.03c-0.49,0.19 -2.05,0.64 -2.76,0.24 -0.2,-0.12 -0.33,-0.32 -0.35,-0.55 -0.22,-1.42 0.84,-4.69 1.41,-6.44 0.19,-0.59 0.33,-1.01 0.38,-1.27 0.42,-1.91 0.21,-3.37 -0.61,-4.34 -0.99,-1.17 -2.74,-1.4 -4.18,-1.18 -1.46,0.19 -2.89,0.59 -4.25,1.16 -0.13,0.06 -0.22,0.18 -0.25,0.32l-0.3 1.41c-0.01,0.03 -0.01,0.06 -0.01,0.09 0,0.13 0.06,0.26 0.16,0.35 0.08,0.07 0.19,0.11 0.3,0.11 0.05,0 0.11,-0.01 0.16,-0.03 0.54,-0.2 2.24,-0.65 2.85,-0.1 0.34,0.31 0.25,0.98 0.11,1.47 -0.14,0.52 -0.31,1.07 -0.48,1.66 -1.12,3.8 -2.4,8.1 -0.37,9.44 0.96,0.73 2.13,1.13 3.33,1.16 1.19,0 2.65,-0.37 4.76,-1.22 0.13,-0.05 0.23,-0.15 0.27,-0.29l0.43 -1.44c0.01,-0.04 0.02,-0.09 0.02,-0.13 0,-0.13 -0.05,-0.25 -0.15,-0.34 -0.08,-0.08 -0.19,-0.12 -0.31,-0.12 -0.06,0 -0.11,0.01 -0.17,0.03l0 0z"/>
    <path class="fil1" d="M21.43 6.13c-1.82,0 -3.3,1.47 -3.3,3.28 0,1.81 1.48,3.28 3.3,3.28 1.82,0 3.3,-1.47 3.3,-3.28 -0,-1.81 -1.48,-3.28 -3.3,-3.28l0 0z"/>
   </g>
  </g>
 </g>
</svg>
