<?xml version="1.0" encoding="UTF-8"?>
<!DOCTYPE svg PUBLIC "-//W3C//DTD SVG 1.1//EN" "http://www.w3.org/Graphics/SVG/1.1/DTD/svg11.dtd">
<!-- Creator: CorelDRAW 2018 (64-Bit Not for commercial use) -->
<svg xmlns="http://www.w3.org/2000/svg" xml:space="preserve" width="3.7907mm" height="4.5mm" version="1.1" style="shape-rendering:geometricPrecision; text-rendering:geometricPrecision; image-rendering:optimizeQuality; fill-rule:evenodd; clip-rule:evenodd"
viewBox="0 0 8.56 10.16"
 xmlns:xlink="http://www.w3.org/1999/xlink">
 <defs>
  <style type="text/css">
   <![CDATA[
    .fil0 {fill:#337802}
   ]]>
  </style>
 </defs>
 <g id="Layer_x0020_1">
  <metadata id="CorelCorpID_0Corel-Layer"/>
  <path class="fil0" d="M6.41 0l-0.12 0c-0.17,0.08 -0.61,0.08 -1.14,0.51 -0.51,0.41 -0.92,1.1 -0.86,1.88 0.27,0.08 0.72,-0.09 0.91,-0.2 0.21,-0.12 0.32,-0.21 0.48,-0.37 0.06,-0.06 0.1,-0.07 0.15,-0.14 0.35,-0.45 0.64,-0.87 0.58,-1.67zm-6.41 5.15l0 0.67c0.05,0.12 0.04,0.32 0.07,0.47 0.06,0.4 0.19,0.84 0.32,1.21 0.3,0.81 0.99,1.96 1.66,2.43 0.57,0.4 0.97,0.23 1.58,0 1.62,-0.61 2.22,0.74 3.28,-0 0.24,-0.17 0.36,-0.3 0.53,-0.51 0.14,-0.16 0.31,-0.4 0.43,-0.58 0.14,-0.21 0.25,-0.4 0.37,-0.64l0.31 -0.71 0 -0.03c-0.37,-0.12 -0.74,-0.47 -0.93,-0.71 -0.82,-1.02 -0.59,-2.6 0.66,-3.31 -0.05,-0.13 -0.29,-0.36 -0.39,-0.44 -0.46,-0.4 -1.2,-0.63 -1.84,-0.58 -0.47,0.04 -0.85,0.21 -1.26,0.35 -0.24,0.08 -0.38,0.16 -0.65,0.08 -0.72,-0.2 -1.14,-0.53 -1.98,-0.36 -0.46,0.09 -0.8,0.29 -1.1,0.51 -1.01,0.78 -0.98,1.95 -1.07,2.16z"/>
 </g>
</svg>
