<?xml version="1.0" encoding="UTF-8"?>
<!DOCTYPE svg PUBLIC "-//W3C//DTD SVG 1.1//EN" "http://www.w3.org/Graphics/SVG/1.1/DTD/svg11.dtd">
<!-- Creator: CorelDRAW 2018 (64-Bit Not for commercial use) -->
<svg xmlns="http://www.w3.org/2000/svg" xml:space="preserve" width="4.5mm" height="4.5mm" version="1.1" style="shape-rendering:geometricPrecision; text-rendering:geometricPrecision; image-rendering:optimizeQuality; fill-rule:evenodd; clip-rule:evenodd"
viewBox="0 0 10.52 10.52"
 xmlns:xlink="http://www.w3.org/1999/xlink">
 <defs>
  <style type="text/css">
   <![CDATA[
    .fil0 {fill:#5BA327;fill-rule:nonzero}
   ]]>
  </style>
 </defs>
 <g id="Layer_x0020_1">
  <metadata id="CorelCorpID_0Corel-Layer"/>
  <path class="fil0" d="M3.71 5.82l0 0.63c0,0.29 0.69,0.52 1.55,0.52 0.86,0 1.55,-0.23 1.55,-0.52l0 -0.63c-0.38,0.23 -0.99,0.32 -1.55,0.32 -0.55,0 -1.17,-0.09 -1.55,-0.32zm0 -1.18l0 0.63c0,0.29 0.69,0.52 1.55,0.52 0.86,0 1.55,-0.23 1.55,-0.52l0 -0.63c-0.38,0.23 -0.99,0.32 -1.55,0.32 -0.55,0 -1.17,-0.09 -1.55,-0.32zm1.55 -1.08c-0.86,0 -1.55,0.23 -1.55,0.52 0,0.29 0.69,0.52 1.55,0.52 0.86,0 1.55,-0.23 1.55,-0.52 0,-0.29 -0.69,-0.52 -1.55,-0.52zm-0.18 -2l0 1.08c0,0.1 0.08,0.18 0.18,0.18 0.1,0 0.18,-0.08 0.18,-0.18l0 -1.08c0.35,-0.08 0.61,-0.39 0.61,-0.77 0,-0.43 -0.35,-0.79 -0.79,-0.79 -0.43,0 -0.79,0.35 -0.79,0.79 0,0.37 0.26,0.68 0.61,0.77zm-2.32 0.96c0.08,-0.12 0.12,-0.26 0.12,-0.42 0,-0.43 -0.35,-0.79 -0.79,-0.79 -0.43,0 -0.79,0.35 -0.79,0.79 0,0.43 0.35,0.79 0.79,0.79 0.15,0 0.29,-0.05 0.42,-0.12l0.76 0.76c0.03,0.03 0.08,0.05 0.13,0.05 0.05,0 0.09,-0.02 0.13,-0.05 0.07,-0.07 0.07,-0.18 0,-0.25l-0.76 -0.76zm-1.21 2.93l1.08 0c0.1,0 0.18,-0.08 0.18,-0.18 0,-0.1 -0.08,-0.18 -0.18,-0.18l-1.08 0c-0.08,-0.35 -0.39,-0.61 -0.77,-0.61 -0.43,0 -0.79,0.35 -0.79,0.79 0,0.43 0.35,0.79 0.79,0.79 0.37,0 0.68,-0.26 0.77,-0.61zm1.72 1.56l-0.76 0.76c-0.12,-0.08 -0.26,-0.12 -0.42,-0.12 -0.43,0 -0.79,0.35 -0.79,0.79 0,0.43 0.35,0.79 0.79,0.79 0.43,0 0.79,-0.35 0.79,-0.79 0,-0.15 -0.05,-0.29 -0.12,-0.42l0.76 -0.76c0.07,-0.07 0.07,-0.18 0,-0.25 -0.07,-0.07 -0.18,-0.07 -0.25,0zm2.16 1.97l0 -1.08c0,-0.1 -0.08,-0.18 -0.18,-0.18 -0.1,0 -0.18,0.08 -0.18,0.18l0 1.08c-0.35,0.08 -0.61,0.39 -0.61,0.77 0,0.43 0.35,0.79 0.79,0.79 0.43,0 0.79,-0.35 0.79,-0.79 0,-0.37 -0.26,-0.69 -0.61,-0.77zm2.99 -1.33c-0.15,0 -0.29,0.05 -0.42,0.12l-0.76 -0.76c-0.07,-0.07 -0.18,-0.07 -0.25,0 -0.07,0.07 -0.07,0.18 0,0.25l0.76 0.76c-0.08,0.12 -0.12,0.26 -0.12,0.42 0,0.43 0.35,0.79 0.79,0.79 0.43,0 0.79,-0.35 0.79,-0.79 0,-0.43 -0.35,-0.79 -0.79,-0.79zm1.31 -3.16c-0.37,0 -0.69,0.26 -0.77,0.61l-1.08 0c-0.1,0 -0.18,0.08 -0.18,0.18 0,0.1 0.08,0.18 0.18,0.18l1.08 0c0.08,0.35 0.39,0.61 0.77,0.61 0.43,0 0.79,-0.35 0.79,-0.79 0,-0.43 -0.35,-0.79 -0.79,-0.79zm-2.61 -0.89c0.05,0 0.09,-0.02 0.13,-0.05l0.76 -0.76c0.12,0.08 0.26,0.12 0.42,0.12 0.43,0 0.79,-0.35 0.79,-0.79 0,-0.43 -0.35,-0.79 -0.79,-0.79 -0.43,0 -0.79,0.35 -0.79,0.79 0,0.15 0.05,0.29 0.12,0.42l-0.76 0.76c-0.07,0.07 -0.07,0.18 0,0.25 0.03,0.03 0.08,0.05 0.13,0.05z"/>
 </g>
</svg>
