<?xml version="1.0" encoding="UTF-8"?>
<!DOCTYPE svg PUBLIC "-//W3C//DTD SVG 1.1//EN" "http://www.w3.org/Graphics/SVG/1.1/DTD/svg11.dtd">
<!-- Creator: CorelDRAW 2018 (64-Bit Not for commercial use) -->
<svg xmlns="http://www.w3.org/2000/svg" xml:space="preserve" width="4.483mm" height="4.5mm" version="1.1" style="shape-rendering:geometricPrecision; text-rendering:geometricPrecision; image-rendering:optimizeQuality; fill-rule:evenodd; clip-rule:evenodd"
viewBox="0 0 13.32 13.37"
 xmlns:xlink="http://www.w3.org/1999/xlink">
 <defs>
  <style type="text/css">
   <![CDATA[
    .fil0 {fill:#337802}
   ]]>
  </style>
 </defs>
 <g id="Layer_x0020_1">
  <metadata id="CorelCorpID_0Corel-Layer"/>
  <path class="fil0" d="M6.1 12.36l-0.01 -5.34c0.23,0 3.68,0.06 3.81,0.02 -0,-0.01 -3.64,-0.07 -3.82,-0.03l-0.01 5.25c0.01,0.11 0,0.06 0.03,0.09zm-6.1 -10.4l-0.01 4.46 5.44 -0.02c0.04,-0.18 0.01,-1.06 0.01,-1.3l-0 -2.63c-0,-0.4 0.03,-0.93 -0,-1.31l-5.44 0.8zm-0.01 9.54l5.45 0.76 0 -5.25 -5.45 -0.02 0 4.51zm6.1 0.86l7.21 1.01 0 -6.31c-0.15,-0.03 -3.22,-0.04 -3.42,-0.01 -0.13,0.03 -3.58,-0.02 -3.81,-0.02l0.01 5.34zm-0.02 -5.97l7.23 -0.02 0 -6.37c-0.48,0.05 -1.01,0.15 -1.49,0.22l-5.54 0.82c-0.23,0.03 -0.2,-0.01 -0.2,0.23 0,0.57 0.01,1.14 -0,1.71 -0.01,1.13 -0.01,2.28 -0,3.42z"/>
 </g>
</svg>
