<?xml version="1.0" encoding="UTF-8"?>
<!DOCTYPE svg PUBLIC "-//W3C//DTD SVG 1.1//EN" "http://www.w3.org/Graphics/SVG/1.1/DTD/svg11.dtd">
<!-- Creator: CorelDRAW 2018 (64-Bit Not for commercial use) -->
<svg xmlns="http://www.w3.org/2000/svg" xml:space="preserve" width="4.2843mm" height="4.5mm" version="1.1" style="shape-rendering:geometricPrecision; text-rendering:geometricPrecision; image-rendering:optimizeQuality; fill-rule:evenodd; clip-rule:evenodd"
viewBox="0 0 7.62 8.01"
 xmlns:xlink="http://www.w3.org/1999/xlink">
 <defs>
  <style type="text/css">
   <![CDATA[
    .fil0 {fill:#337802}
   ]]>
  </style>
 </defs>
 <g id="Layer_x0020_1">
  <metadata id="CorelCorpID_0Corel-Layer"/>
  <g id="_1712433998656">
   <g>
    <path class="fil0" d="M2.69 3.59l-1.74 0.01 0.71 0.85c0.12,0.15 0.24,0.28 0.36,0.42 0.12,0.15 0.25,0.28 0.36,0.43 0.31,0.39 0.74,0.87 1.07,1.27 0.06,0.07 0.12,0.14 0.18,0.21 0.06,0.06 0.13,0.17 0.19,0.22l0.72 -0.84c0.31,-0.39 0.75,-0.88 1.08,-1.28l1.07 -1.28 -1.74 -0 0 -2.93c0,-0.22 -0.01,-0.34 -0.12,-0.47 -0.21,-0.26 -0.6,-0.19 -1,-0.19 -0.59,0 -1.13,-0.11 -1.12,0.63l0 2.95z"/>
    <path class="fil0" d="M0.16 5.38c-0.21,0.08 -0.15,0.33 -0.15,0.63 0,0.73 -0.11,1.35 0.54,1.79 0.4,0.27 0.81,0.2 1.35,0.2 0.41,0 4.43,0.02 4.64,-0.01 0.45,-0.05 0.76,-0.33 0.93,-0.63 0.21,-0.38 0.15,-0.94 0.15,-1.42 0,-0.22 0.06,-0.55 -0.19,-0.58 -0.31,-0.04 -0.25,0.35 -0.25,0.53 0,0.23 0.03,0.93 -0.04,1.13 -0.09,0.26 -0.33,0.49 -0.64,0.53 -0.23,0.03 -3.4,0.01 -3.87,0.01 -0.27,0 -1.36,0.02 -1.54,-0.01 -0.22,-0.04 -0.38,-0.17 -0.48,-0.29 -0.14,-0.17 -0.16,-0.35 -0.16,-0.63 0,-0.14 0.03,-1.05 -0.03,-1.14 -0.04,-0.08 -0.15,-0.15 -0.27,-0.1z"/>
   </g>
  </g>
 </g>
</svg>
