<?xml version="1.0" encoding="UTF-8"?>
<!DOCTYPE svg PUBLIC "-//W3C//DTD SVG 1.1//EN" "http://www.w3.org/Graphics/SVG/1.1/DTD/svg11.dtd">
<!-- Creator: CorelDRAW 2018 (64-Bit Not for commercial use) -->
<svg xmlns="http://www.w3.org/2000/svg" xml:space="preserve" width="5.0865mm" height="4.5mm" version="1.1" style="shape-rendering:geometricPrecision; text-rendering:geometricPrecision; image-rendering:optimizeQuality; fill-rule:evenodd; clip-rule:evenodd"
viewBox="0 0 14.67 12.98"
 xmlns:xlink="http://www.w3.org/1999/xlink">
 <defs>
  <style type="text/css">
   <![CDATA[
    .fil0 {fill:#82BF3F}
   ]]>
  </style>
 </defs>
 <g id="Layer_x0020_1">
  <metadata id="CorelCorpID_0Corel-Layer"/>
  <path class="fil0" d="M13.65 0c0.28,0 0.54,0.12 0.73,0.3 0.19,0.19 0.3,0.44 0.3,0.73l0 8.25c0,0.28 -0.12,0.54 -0.3,0.73 -0.19,0.19 -0.44,0.3 -0.73,0.3l-0.54 0c-0.08,-0.07 -0.17,-0.14 -0.25,-0.21l-0.01 -0.01 -0 -0 -0.01 -0 -0.01 -0.01 0 -0 -0.01 -0.01 -0.01 -0.01 -0 -0 -0.01 -0.01 -0 -0 -0 -0 -0.01 -0.01 -0 -0 -0.01 -0.01 -0.01 -0.01 -0 -0 -0.01 -0.01 -0.01 -0.01 -0.01 -0.01 -0 -0 -0.01 -0.01 -0.01 -0.01 -0 -0 -0.01 -0.01 -0.01 -0 -0 -0 -0.01 -0.01 -0 -0 -0.01 -0.01 -0.01 -0.01 -0 -0 -0.01 -0.01 -0.01 -0 -0 -0 -0.01 -0.01 -0 -0 -0.01 -0 -0.01 -0.01 0 -0 -0.02 -0.01 -0 -0 -0.01 -0.01 -0 -0 -0.01 -0 -0.01 -0.01 -0 -0 -0.01 -0.01 -0.01 -0.01 -0 -0 -0.01 -0.01 -0 -0 -0 -0 -0.01 -0.01 -0 -0 -0.01 -0.01 -0.01 -0.01 -0 -0 -0.01 -0.01 -0 -0 -0 -0 -0.01 -0.01 -0 -0 -0.01 -0.01 -0.01 -0.01 -0 0 -0.01 -0.01 -0.01 -0 -0 -0 -0.01 -0.01 -0 -0 -0.01 -0 -0.01 -0.01 -0 -0 -0.01 -0.01 -0.01 -0.01 -0 -0 -0.01 -0.01 -0 -0 -0 -0 -0.01 -0.01 -0 -0 -0.01 -0.01 -0.01 -0.01 -0 -0 -0.01 -0.01 -0 -0 -0 -0 -0.01 -0.01 -0 -0 -0.01 -0.01 -0.01 -0.01 -0 -0 -0.01 -0.01 -0.01 -0 -0 -0 -0.01 -0.01 -0 -0 -0.01 -0 -0.01 -0.01 0.01 -0.02 0.01 -0.01 0 -0.01 0.01 -0.02 0 -0.01 0 -0.01 0.01 -0.02 0 -0.01 0 -0.01 0 0 0.01 -0.02 0 -0.01 0 -0 0 -0 0 -0 0 -0 0 -0 0 -0 0 -0 0 -0 0 -0 0 -0 0 -0 0 -0 0 -0 0 -0 0 -0 0 -0 0 -0 0 -0 0 -0 0 -0 0 -0 0 -0 0 -0 0 -0 0 -0 0 -0 0 -0 0 -0 0 -0 0 -0 0 -0 0 -0 0 -0 0 0 0 -0 0.01 -0.01 0 -0 0 -0 0 -0 0.01 -0.01 0.01 -0.01 0 -0 0 -0 0.01 -0.01 0.01 -0.02 0 -0 0 -0.01 0.01 -0.02 0 -0 0 -0 0 -0 0 -0 0.01 -0.01 0.01 -0.02 0.01 -0.02 0 -0 0 -0 1.19 0c0.02,0 0.03,-0.01 0.04,-0.02 0.01,-0.01 0.02,-0.02 0.02,-0.04l0 -8.25c0,-0.02 -0.01,-0.03 -0.02,-0.04 -0.01,-0.01 -0.02,-0.02 -0.04,-0.02 -4.21,0 -8.41,0 -12.62,0 -0.02,0 -0.03,0.01 -0.04,0.02 -0.01,0.01 -0.02,0.02 -0.02,0.04l0 8.25c0,0.02 0.01,0.03 0.02,0.04 0.01,0.01 0.02,0.02 0.04,0.02l5.66 0 0 0c0.01,0.02 0.01,0.03 0.02,0.05l0.01 0.03 0.02 0.04 0.01 0.02 0.02 0.04 0.02 0.03 0.02 0.04 0.02 0.03 0.02 0.04 0.02 0.03 0.02 0.03 0.02 0.04 0.02 0.03 0.03 0.04 0 0 0.01 0.02 0 0.01 0.03 0.04 0 0 0.01 0.02 0.01 0.02 0.02 0.03 0 0 0.01 0.01 0.01 0.02 0.02 0.03 0.01 0.01 0 0.01c0.01,0.01 0.02,0.03 0.03,0.04l0.01 0.01 0.01 0.01 0.03 0.03 0.02 0.03 0.03 0.03 0.01 0.01 0.01 0.01 0 0 0.03 0.04 0 0 0.01 0.01c0.01,0.01 0.02,0.03 0.04,0.04l0.01 0.01 -6.31 0c-0.28,0 -0.54,-0.12 -0.73,-0.3 -0.19,-0.19 -0.3,-0.44 -0.3,-0.73l0 -8.25c0,-0.28 0.12,-0.54 0.3,-0.73 0.19,-0.19 0.44,-0.3 0.73,-0.3 4.21,0 8.41,0 12.62,0l0 0zm-3.65 11.22c0.09,0.75 0.33,1.25 1.38,1.39 0.09,0.01 0.15,0.08 0.15,0.17 0,0.11 -0.05,0.2 -0.17,0.2 -2.68,0 -5.35,0 -8.03,0 -0.1,0 -0.17,-0.08 -0.17,-0.17 0,-0.1 0.04,-0.19 0.15,-0.2 1.28,-0.17 1.35,-0.86 1.43,-1.9l3.09 0 0 0c0.02,0.01 0.04,0.03 0.06,0.04l0 0c0.02,0.01 0.04,0.03 0.06,0.04l0 0c0.06,0.04 0.13,0.08 0.2,0.11l0 0c0.04,0.02 0.09,0.05 0.14,0.07l0 0c0.12,0.05 0.23,0.1 0.36,0.14l0 0c0.05,0.02 0.1,0.03 0.15,0.04l0 0c0.02,0.01 0.05,0.01 0.07,0.02l0 0c0.05,0.01 0.1,0.02 0.15,0.03l0 0c0.03,0 0.05,0.01 0.08,0.01l0 0c0.03,0 0.05,0.01 0.07,0.01l0.01 0c0.05,0.01 0.1,0.01 0.15,0.02l0 0c0.03,0 0.05,0 0.08,0l0 0c0.03,0 0.05,0 0.08,0l0 0c0.03,0 0.05,0 0.08,0 0.03,0 0.05,-0 0.08,-0l0 0 0.01 -0c0.02,-0 0.04,-0 0.07,-0l0.01 -0 0.01 -0c0.02,-0 0.04,-0 0.06,-0l0.01 -0 0.02 -0 0 0 0.01 -0 0.05 -0 0.01 -0 0.02 -0 0.01 -0 0.01 -0 0.03 -0 0.01 -0 0.04 -0 0 0zm-7.37 -5.43l1.24 0 0 2.1 -1.24 0 0 -2.1zm9.44 -2.13l-1.24 0 0 1.57 0.02 0.01 0 0 0.04 0.02 0 0 0.02 0.01 0 0 0.04 0.02 0 0 0.02 0.01 0.01 0 0.04 0.02 0.02 0.01 0.01 0 0.04 0.02 0.02 0.01 0.01 0 0.04 0.02 0.03 0.02 0.04 0.02 0.02 0.01 0.01 0 0.04 0.03 0.02 0.02c0.02,0.01 0.03,0.02 0.04,0.03l0.02 0.01 0.04 0.03 0.03 0.02 0.03 0.02 0.03 0.02c0.01,0.01 0.02,0.02 0.03,0.03l0.02 0.02c0.01,0.01 0.03,0.02 0.04,0.03l0.01 0.01c0.02,0.01 0.03,0.03 0.05,0.04l0 0c0.03,0.03 0.07,0.06 0.1,0.09l0 0 0.02 0.02 0.03 0.03 0 0c0.03,0.03 0.07,0.07 0.1,0.11l0 0c0.02,0.02 0.03,0.04 0.05,0.05l0.02 0.02c0.01,0.01 0.02,0.02 0.03,0.04l0 0c0.02,0.02 0.03,0.04 0.04,0.06l0 -2.54zm-3.29 -1.57l1.24 0 0 2.91 -0.01 -0 0 0 -0.05 -0.01 -0.01 -0 -0.01 -0 -0.01 -0 -0.01 -0 -0.01 -0 -0.01 -0 -0.03 -0 -0.01 -0 -0.05 -0 -0.01 -0 -0.02 -0c-0.02,-0 -0.04,-0 -0.06,-0l-0.01 -0 -0.01 -0c-0.02,-0 -0.05,-0 -0.07,-0l-0.01 0c-0.03,-0 -0.05,-0 -0.08,-0 -0.03,0 -0.05,0 -0.08,0l-0 0c-0.03,0 -0.05,0 -0.08,0l-0 0c-0.03,0 -0.05,0 -0.08,0l-0 0 -0 0c-0.02,0 -0.05,0 -0.07,0.01l-0 0 -0 0 -0 0c-0.02,0 -0.04,0.01 -0.07,0.01l-0.02 0c-0.02,0 -0.04,0.01 -0.06,0.01l-0.02 0 -0.05 0.01 -0.03 0.01c-0.02,0 -0.03,0.01 -0.05,0.01l-0.03 0.01 -0.04 0.01 -0.03 0.01 -0.01 0 -0.03 0.01 -0.04 0.01 -0 0 0 -2.99zm-2.86 1.57l-1.24 0 0 4.23 1.24 0 0 -4.23zm2.05 1.11l-1.24 0 0 2.04c0.01,-0.02 0.02,-0.03 0.02,-0.05l0.01 -0.02c0.01,-0.02 0.02,-0.03 0.02,-0.05l0.01 -0.02c0.01,-0.02 0.02,-0.03 0.03,-0.05l0.01 -0.02c0.01,-0.02 0.02,-0.03 0.03,-0.05l0.01 -0.02c0.01,-0.02 0.02,-0.03 0.03,-0.05l0.01 -0.02 0.02 -0.04 0.02 -0.03 0.02 -0.04 0.02 -0.02 0.03 -0.04 0.02 -0.02 0.03 -0.04 0.02 -0.02 0.03 -0.03 0.02 -0.03 0.03 -0.04 0.02 -0.02 0.03 -0.04 0.02 -0.02 0 -0 0.02 -0.02 0 -0 0.03 -0.03 0.03 -0.03 0.02 -0.02 0.03 -0.03 0.02 -0.02 0.03 -0.03 0.02 -0.02 0.03 -0.03 0.02 -0.02 0.03 -0.03 0.03 -0.03 0.02 -0.02 0.03 -0.03 0 -0 0.02 -0.02 0 -0 0.03 -0.02 0.03 -0.02 0.03 -0.02 0.03 -0.02 0.03 -0.02 0.03 -0.02 0.03 -0.02 0.04 -0.02 0.03 -0.02 0.04 -0.02 0.02 -0.01 0 -0 0 -0.65zm1.61 0.6c1.51,0 2.74,1.23 2.74,2.74 0,0.6 -0.2,1.16 -0.53,1.61 1.34,1.12 1.81,1.45 2.65,2.48l-0.78 0.78c-1.02,-0.85 -1.35,-1.32 -2.47,-2.65 -0.45,0.33 -1.01,0.53 -1.61,0.53 -1.52,0 -2.74,-1.23 -2.74,-2.74 0,-1.51 1.23,-2.74 2.74,-2.74l0 0zm0 0.66c-1.15,0 -2.09,0.93 -2.09,2.09 0,1.15 0.93,2.09 2.09,2.09 1.15,0 2.09,-0.93 2.09,-2.09 0,-1.15 -0.93,-2.09 -2.09,-2.09l0 0zm1.69 2.09c0,-0.93 -0.76,-1.69 -1.69,-1.69 -0.94,0 -1.69,0.76 -1.69,1.69 0,0.94 0.76,1.69 1.69,1.69 0.93,0 1.69,-0.76 1.69,-1.69z"/>
 </g>
</svg>
