<?xml version="1.0" encoding="UTF-8"?>
<!DOCTYPE svg PUBLIC "-//W3C//DTD SVG 1.1//EN" "http://www.w3.org/Graphics/SVG/1.1/DTD/svg11.dtd">
<!-- Creator: CorelDRAW 2018 (64-Bit Not for commercial use) -->
<svg xmlns="http://www.w3.org/2000/svg" xml:space="preserve" width="1.8191mm" height="1.8191mm" version="1.1" style="shape-rendering:geometricPrecision; text-rendering:geometricPrecision; image-rendering:optimizeQuality; fill-rule:evenodd; clip-rule:evenodd"
viewBox="0 0 0.95 0.95"
 xmlns:xlink="http://www.w3.org/1999/xlink">
 <defs>
  <style type="text/css">
   <![CDATA[
    .fil0 {fill:white}
   ]]>
  </style>
 </defs>
 <g id="Layer_x0020_1">
  <metadata id="CorelCorpID_0Corel-Layer"/>
  <path class="fil0" d="M0.42 0.67c0,0.04 0,0.08 0,0.11 -0,0.08 -0.11,0.08 -0.11,0 -0,-0.04 0,-0.08 -0,-0.11 -0.1,-0.06 -0.05,-0.2 0.05,-0.2 0.05,-0 0.09,0.03 0.1,0.08 0.01,0.03 0,0.05 -0.01,0.08 -0.01,0.02 -0.03,0.04 -0.04,0.05zm-0.42 -0.21l0 0.4c0,0.01 0.01,0.02 0.01,0.04 0.01,0.01 0.01,0.02 0.02,0.03 0.01,0.01 0.02,0.01 0.03,0.02 0.01,0.01 0.03,0.01 0.04,0.01l0.55 0c0.02,-0.01 0.04,-0 0.06,-0.03 0.01,-0.01 0.03,-0.04 0.03,-0.07 0,-0.06 0,-0.13 0,-0.2 0,-0.03 0,-0.17 -0,-0.2 -0,-0.03 -0.02,-0.05 -0.03,-0.06 -0.02,-0.02 -0.03,-0.02 -0.07,-0.03 -0,-0.04 -0,-0.08 -0,-0.12 0,-0.04 -0,-0.07 0.02,-0.1 0.05,-0.06 0.13,-0.05 0.17,0 0.02,0.03 0.02,0.06 0.02,0.1 0,0.04 0,0.08 0,0.12 0,0.04 -0,0.08 0.03,0.09 0.02,0.01 0.03,0.01 0.05,-0 0.02,-0.01 0.02,-0.02 0.03,-0.04l0 -0.24c-0.01,-0.01 -0.01,-0.03 -0.01,-0.04 -0.02,-0.05 -0.06,-0.1 -0.11,-0.13 -0.01,-0.01 -0.02,-0.01 -0.03,-0.01 -0.01,-0 -0.03,-0.01 -0.04,-0.01l-0.04 0c-0.01,0 -0.05,0 -0.1,0.04 -0.12,0.09 -0.08,0.21 -0.09,0.33 -0.1,0 -0.21,0 -0.31,0 -0.08,0 -0.15,-0.01 -0.19,0.04 -0.02,0.02 -0.02,0.04 -0.02,0.05z"/>
 </g>
</svg>
