<?xml version="1.0" encoding="UTF-8"?>
<!DOCTYPE svg PUBLIC "-//W3C//DTD SVG 1.1//EN" "http://www.w3.org/Graphics/SVG/1.1/DTD/svg11.dtd">
<!-- Creator: CorelDRAW 2018 (64-Bit Not for commercial use) -->
<svg xmlns="http://www.w3.org/2000/svg" xml:space="preserve" width="4.4072mm" height="4.5mm" version="1.1" style="shape-rendering:geometricPrecision; text-rendering:geometricPrecision; image-rendering:optimizeQuality; fill-rule:evenodd; clip-rule:evenodd"
viewBox="0 0 12.25 12.51"
 xmlns:xlink="http://www.w3.org/1999/xlink">
 <defs>
  <style type="text/css">
   <![CDATA[
    .fil0 {fill:#98BF17;fill-rule:nonzero}
   ]]>
  </style>
 </defs>
 <g id="Layer_x0020_1">
  <metadata id="CorelCorpID_0Corel-Layer"/>
  <path class="fil0" d="M5.15 6.38c0.16,0.05 0.32,0.1 0.48,0.14 0.25,0.08 0.51,0.15 0.76,0.23 0.06,0.02 0.12,0.04 0.17,0.05 0.05,0.02 0.12,0.01 0.17,-0.02 0.04,-0.03 0.09,-0.08 0.1,-0.13 0.03,-0.12 -0.04,-0.23 -0.15,-0.27 -0.16,-0.05 -0.32,-0.1 -0.48,-0.14 -0.25,-0.08 -0.51,-0.15 -0.76,-0.23 -0.06,-0.02 -0.12,-0.04 -0.17,-0.05 -0.05,-0.02 -0.12,-0.01 -0.17,0.02 -0.05,0.03 -0.09,0.08 -0.1,0.13 -0.03,0.12 0.04,0.23 0.15,0.27zm0 1.37c0.16,0.05 0.32,0.1 0.48,0.15 0.25,0.08 0.51,0.15 0.76,0.23 0.06,0.02 0.12,0.04 0.17,0.05 0.05,0.02 0.12,0.01 0.17,-0.02 0.04,-0.03 0.09,-0.08 0.1,-0.13 0.03,-0.12 -0.04,-0.23 -0.15,-0.27 -0.16,-0.05 -0.32,-0.1 -0.48,-0.14 -0.25,-0.08 -0.51,-0.15 -0.76,-0.23 -0.06,-0.02 -0.12,-0.04 -0.17,-0.05 -0.05,-0.02 -0.12,-0.01 -0.17,0.02 -0.05,0.03 -0.09,0.08 -0.1,0.13 -0.03,0.12 0.04,0.23 0.15,0.27zm0 1.37c0.16,0.05 0.32,0.1 0.48,0.14 0.25,0.08 0.51,0.15 0.76,0.23 0.06,0.02 0.12,0.04 0.17,0.05 0.05,0.02 0.12,0.01 0.17,-0.02 0.04,-0.03 0.09,-0.08 0.1,-0.13 0.03,-0.12 -0.04,-0.23 -0.15,-0.27 -0.16,-0.05 -0.32,-0.1 -0.48,-0.14 -0.25,-0.08 -0.51,-0.15 -0.76,-0.23 -0.06,-0.02 -0.12,-0.04 -0.17,-0.05 -0.05,-0.02 -0.12,-0.01 -0.17,0.02 -0.05,0.03 -0.09,0.08 -0.1,0.13 -0.03,0.12 0.04,0.23 0.15,0.27zm0 1.37c0.16,0.05 0.32,0.1 0.48,0.14 0.25,0.08 0.51,0.15 0.76,0.23 0.06,0.02 0.12,0.04 0.17,0.05 0.05,0.02 0.12,0.01 0.17,-0.02 0.04,-0.03 0.09,-0.08 0.1,-0.13 0.03,-0.12 -0.04,-0.23 -0.15,-0.27 -0.16,-0.05 -0.32,-0.1 -0.48,-0.14 -0.25,-0.08 -0.51,-0.15 -0.76,-0.23 -0.06,-0.02 -0.12,-0.04 -0.17,-0.05 -0.05,-0.02 -0.12,-0.01 -0.17,0.02 -0.05,0.03 -0.09,0.08 -0.1,0.13 -0.03,0.12 0.04,0.23 0.15,0.27zm3.57 -3.67c0.05,0.03 0.11,0.04 0.17,0.02 0.16,-0.05 0.32,-0.1 0.48,-0.14 0.25,-0.08 0.51,-0.15 0.76,-0.23 0.06,-0.02 0.12,-0.04 0.17,-0.05 0.05,-0.02 0.1,-0.05 0.13,-0.1 0.03,-0.05 0.04,-0.11 0.02,-0.17 -0.02,-0.05 -0.05,-0.1 -0.1,-0.13 -0.05,-0.03 -0.11,-0.04 -0.17,-0.02 -0.16,0.05 -0.32,0.1 -0.48,0.14 -0.25,0.08 -0.51,0.15 -0.76,0.23 -0.06,0.02 -0.12,0.04 -0.17,0.05 -0.05,0.02 -0.1,0.05 -0.13,0.1 -0.03,0.05 -0.04,0.12 -0.02,0.17 0.02,0.05 0.05,0.1 0.1,0.13zm0 1.37c0.05,0.03 0.11,0.04 0.17,0.02 0.16,-0.05 0.32,-0.1 0.48,-0.14 0.25,-0.08 0.51,-0.15 0.76,-0.23 0.06,-0.02 0.12,-0.04 0.17,-0.05 0.05,-0.02 0.1,-0.05 0.13,-0.1 0.03,-0.05 0.04,-0.12 0.02,-0.17 -0.02,-0.05 -0.05,-0.1 -0.1,-0.13 -0.05,-0.03 -0.11,-0.04 -0.17,-0.02 -0.16,0.05 -0.32,0.1 -0.48,0.14 -0.25,0.08 -0.51,0.15 -0.76,0.23 -0.06,0.02 -0.12,0.04 -0.17,0.05 -0.05,0.02 -0.1,0.05 -0.13,0.1 -0.03,0.05 -0.04,0.12 -0.02,0.17 0.02,0.05 0.05,0.1 0.1,0.13zm0 1.37c0.05,0.03 0.11,0.04 0.17,0.02 0.16,-0.05 0.32,-0.1 0.48,-0.14 0.25,-0.08 0.51,-0.15 0.76,-0.23 0.06,-0.02 0.12,-0.04 0.17,-0.05 0.05,-0.02 0.1,-0.05 0.13,-0.1 0.03,-0.05 0.04,-0.12 0.02,-0.17 -0.02,-0.05 -0.05,-0.1 -0.1,-0.13 -0.05,-0.03 -0.11,-0.04 -0.17,-0.02 -0.16,0.05 -0.32,0.1 -0.48,0.14 -0.25,0.08 -0.51,0.15 -0.76,0.23 -0.06,0.02 -0.12,0.04 -0.17,0.05 -0.05,0.02 -0.1,0.05 -0.13,0.1 -0.03,0.05 -0.04,0.12 -0.02,0.17 0.02,0.05 0.05,0.1 0.1,0.13zm0 1.37c0.05,0.03 0.11,0.04 0.17,0.02 0.16,-0.05 0.32,-0.1 0.48,-0.14 0.25,-0.08 0.51,-0.15 0.76,-0.23 0.06,-0.02 0.12,-0.03 0.17,-0.05 0.05,-0.02 0.1,-0.05 0.13,-0.1 0.03,-0.05 0.04,-0.12 0.02,-0.17 -0.02,-0.05 -0.05,-0.1 -0.1,-0.13 -0.05,-0.03 -0.11,-0.04 -0.17,-0.02 -0.16,0.05 -0.32,0.1 -0.48,0.14 -0.25,0.08 -0.51,0.15 -0.76,0.23 -0.06,0.02 -0.12,0.04 -0.17,0.05 -0.05,0.02 -0.1,0.05 -0.13,0.1 -0.03,0.05 -0.04,0.12 -0.02,0.17 0.02,0.05 0.05,0.1 0.1,0.13zm-3.45 -5.58c0.35,0.09 0.7,0.17 1.05,0.26 0.3,0.08 0.6,0.15 0.9,0.23 0.1,0.02 0.19,0.05 0.29,0.07l0 0c0,0.15 0,0.31 0,0.46 0,0.23 0,0.45 0,0.68 0,0.28 0,0.56 0,0.83 0,0.3 0,0.61 0,0.91 0,0.31 0,0.62 0,0.92 0,0.29 0,0.57 0,0.86 0,0.24 0,0.48 0,0.72 0,0.17 0,0.33 0,0.5 -0.03,-0.01 -0.06,-0.01 -0.08,-0.02 -0.29,-0.07 -0.58,-0.14 -0.86,-0.22 -0.35,-0.09 -0.7,-0.17 -1.05,-0.26 -0.3,-0.08 -0.6,-0.15 -0.9,-0.23 -0.1,-0.02 -0.19,-0.05 -0.29,-0.07 0,-0.15 0,-0.31 0,-0.46 0,-0.23 0,-0.45 0,-0.68 0,-0.28 0,-0.56 0,-0.83 0,-0.3 0,-0.61 0,-0.91 0,-0.31 0,-0.61 0,-0.92 0,-0.29 0,-0.57 0,-0.86 0,-0.24 0,-0.48 0,-0.73 0,-0.17 0,-0.33 0,-0.5 0.03,0.01 0.06,0.01 0.08,0.02 0.29,0.07 0.58,0.14 0.86,0.22zm2.87 0.51c0.29,-0.07 0.58,-0.14 0.86,-0.22 0.35,-0.09 0.7,-0.17 1.05,-0.26 0.3,-0.08 0.6,-0.15 0.9,-0.23 0.06,-0.01 0.12,-0.03 0.17,-0.04 0,0.12 0,0.23 0,0.35 0,0.23 0,0.45 0,0.68 0,0.28 0,0.56 0,0.83 0,0.3 0,0.61 0,0.91 0,0.31 0,0.61 0,0.92 0,0.29 0,0.57 0,0.86 0,0.24 0,0.48 0,0.73 0,0.17 0,0.35 0,0.52 0,0.03 0,0.06 -0,0.09 -0.07,0.02 -0.13,0.03 -0.2,0.05 -0.29,0.07 -0.58,0.14 -0.86,0.22 -0.35,0.09 -0.7,0.17 -1.05,0.26 -0.3,0.08 -0.6,0.15 -0.9,0.23 -0.06,0.01 -0.11,0.03 -0.17,0.04 0,-0.12 0,-0.23 0,-0.35 0,-0.23 0,-0.45 0,-0.68 0,-0.28 0,-0.56 0,-0.83 0,-0.3 0,-0.61 0,-0.91 0,-0.31 0,-0.62 0,-0.92 0,-0.29 0,-0.57 0,-0.85 0,-0.24 0,-0.48 0,-0.73 0,-0.17 0,-0.35 0,-0.52 0,-0.03 0,-0.06 0,-0.09 0.07,-0.02 0.13,-0.03 0.2,-0.05zm3.86 -0.46l-0.44 0c0,-0.1 0,-0.21 0,-0.31 0,-0.08 0,-0.17 0,-0.25 0,-0 0,-0.01 0,-0.01 0,-0.14 -0.14,-0.24 -0.28,-0.21 -0.12,0.03 -0.24,0.06 -0.36,0.09 -0.29,0.07 -0.58,0.14 -0.86,0.22 -0.35,0.09 -0.7,0.17 -1.05,0.26 -0.3,0.08 -0.6,0.15 -0.9,0.23 -0.13,0.03 -0.26,0.06 -0.39,0.1 -0.1,-0.03 -0.2,-0.05 -0.3,-0.08 -0.29,-0.07 -0.58,-0.14 -0.86,-0.22 -0.35,-0.09 -0.7,-0.17 -1.05,-0.26 -0.3,-0.08 -0.6,-0.15 -0.9,-0.23 -0.15,-0.04 -0.29,-0.08 -0.44,-0.11 -0,-0 -0,-0 -0.01,-0 -0.14,-0.03 -0.28,0.07 -0.28,0.21 0,0.06 0,0.11 0,0.17 0,0.13 0,0.27 0,0.4l-0.44 0c-0.14,0 -0.25,0.11 -0.25,0.25l0 6.14c0,0.13 0.1,0.23 0.22,0.25l4.3 0.49 4.3 -0.43c0.13,-0.01 0.22,-0.12 0.22,-0.25l0 -6.2c0,-0.14 -0.11,-0.25 -0.25,-0.25zm-9.16 1.56c-0.57,-0.18 -1.14,-0.36 -1.71,-0.55 -0.41,-0.13 -0.59,-0.43 -0.48,-0.76 0.11,-0.35 0.42,-0.49 0.83,-0.36 0.45,0.14 0.92,0.25 1.35,0.44 0,0 0.01,0 0.01,0l0 -0.08c0,-0.21 0.1,-0.39 0.26,-0.5 -0.67,-0.21 -1.34,-0.43 -2.02,-0.65 -0.16,-0.05 -0.3,-0.14 -0.38,-0.29 -0.12,-0.22 -0.1,-0.44 0.05,-0.64 0.19,-0.25 0.45,-0.27 0.72,-0.19 0.75,0.24 1.49,0.47 2.23,0.72 0.29,0.1 0.58,0.11 0.88,0.04 1.59,-0.37 3.19,-0.73 4.78,-1.1 0.11,-0.02 0.3,0.02 0.26,-0.21 -0.04,-0.19 -0.09,-0.37 -0.33,-0.39 -0.08,-0.01 -0.16,0.02 -0.24,0.04 -1.5,0.34 -2.99,0.68 -4.48,1.02 -0.23,0.05 -0.45,0.07 -0.67,0 -0.94,-0.3 -1.89,-0.59 -2.82,-0.9 -0.35,-0.11 -0.5,-0.44 -0.4,-0.76 0.1,-0.31 0.42,-0.46 0.78,-0.35 0.54,0.17 1.08,0.35 1.61,0.54 0.33,0.11 0.66,0.17 1,0.16 0.29,0.01 0.58,-0.03 0.86,-0.09 1.54,-0.36 3.09,-0.68 4.65,-1 0.1,-0.02 0.32,0.05 0.27,-0.19 -0.05,-0.2 0.04,-0.48 -0.31,-0.51 -0.42,-0.04 -0.84,-0.09 -1.25,-0.17 -1.43,-0.28 -2.85,-0.3 -4.28,0.08 -0.91,0.24 -1.86,0.38 -2.79,0.52 -0.49,0.08 -0.87,0.27 -1.07,0.73 -0.2,0.45 -0.13,0.89 0.19,1.27 0.09,0.1 0.11,0.16 0.01,0.28 -0.46,0.55 -0.45,1.09 -0,1.64 0.08,0.1 0.09,0.14 0,0.25 -0.63,0.8 -0.35,1.7 0.62,2.02 0.62,0.2 1.25,0.4 1.88,0.6l0 -0.65z"/>
 </g>
</svg>
