<?xml version="1.0" encoding="UTF-8"?>
<!DOCTYPE svg PUBLIC "-//W3C//DTD SVG 1.1//EN" "http://www.w3.org/Graphics/SVG/1.1/DTD/svg11.dtd">
<!-- Creator: CorelDRAW 2018 (64-Bit Not for commercial use) -->
<svg xmlns="http://www.w3.org/2000/svg" xml:space="preserve" width="11.0425mm" height="11.0182mm" version="1.1" style="shape-rendering:geometricPrecision; text-rendering:geometricPrecision; image-rendering:optimizeQuality; fill-rule:evenodd; clip-rule:evenodd"
viewBox="0 0 40.1 40.01"
 xmlns:xlink="http://www.w3.org/1999/xlink">
 <defs>
  <style type="text/css">
   <![CDATA[
    .fil0 {fill:#ED823A}
   ]]>
  </style>
 </defs>
 <g id="Layer_x0020_1">
  <metadata id="CorelCorpID_0Corel-Layer"/>
  <path class="fil0" d="M29.41 7.89c0.17,0.06 0.16,0.05 0.26,0.2 0.71,0.36 2.23,2.18 2.78,2.92 1.31,1.76 2.43,4.24 2.74,6.67 0.14,1.12 0.27,2.4 0.12,3.57 -0.15,1.11 -0.27,2.12 -0.6,3.17 -0.31,0.96 -0.66,1.87 -1.1,2.67 -0.67,1.2 -0.8,1.27 -1.46,2.27 -0.07,0.18 -0.05,0.16 -0.2,0.27l-1.36 1.46c-1.24,1.2 -3.53,2.7 -5.2,3.22 -0.49,0.15 -0.92,0.3 -1.42,0.44 -2.68,0.74 -5.79,0.57 -8.27,-0.14 -1.04,-0.3 -1.72,-0.61 -2.65,-1.07 -0.42,-0.21 -0.78,-0.43 -1.19,-0.68 -1.47,-0.9 -0.7,-0.98 -2.02,-0.3l-2.56 1.37c-0.15,0.17 -0.17,0.15 -0.33,0.17 0,-0.21 0.03,-0.26 0.15,-0.4 0.27,-0.6 0.48,-1.23 0.73,-1.82 0.96,-2.23 0.83,-1.69 0.32,-2.37 -0.48,-0.64 -0.65,-0.84 -1.1,-1.57 -0.44,-0.7 -0.84,-1.48 -1.18,-2.36 -1.46,-3.81 -1.44,-8.07 0.29,-11.85 2.58,-5.66 7.99,-9.05 14.15,-9.04 1.42,0 3.32,0.31 4.55,0.75 0.9,0.32 1.69,0.65 2.46,1.06 0.44,0.24 1.91,1.11 2.12,1.38zm-10.78 19.13c-0.09,0.02 -0.23,0.11 -0.31,0.17 -0.16,0.09 -0.23,0.07 -0.15,0.25 0.03,0.08 0.08,0.16 0.1,0.24 -0.11,0.09 -0.22,0.19 -0.31,0.29l-0.36 -0.14 -0.28 0.5 0.29 0.22c-0.02,0.06 -0.04,0.13 -0.06,0.19 -0.02,0.08 -0.03,0.15 -0.04,0.22l-0.39 0.06 0 0.58 0.4 0.06c0.03,0.13 0.06,0.26 0.11,0.38 -0.13,0.1 -0.31,0.24 -0.32,0.26l0.28 0.5 0.43 -0.17c0.08,0.09 0.17,0.17 0.27,0.24l-0.17 0.44 0.5 0.29 0.32 -0.42c0.04,0.01 0.09,0.02 0.13,0.03 0.06,0.01 0.12,0.02 0.17,0.03l0.06 0.54 0.59 -0 0.08 -0.56 0.28 -0.07 0.34 0.44 0.5 -0.3 -0.2 -0.53 0.19 -0.19 0.52 0.21 0.28 -0.5 -0.44 -0.34 0.06 -0.27 0.56 -0.08 -0 -0.58 -0.56 -0.08 -0.06 -0.28 0.43 -0.34 -0.29 -0.5 -0.51 0.2c-0.06,-0.08 -0.13,-0.15 -0.2,-0.22l0.2 -0.5 -0.5 -0.29 -0.3 0.39c-0.1,-0.04 -0.2,-0.08 -0.3,-0.11l-0.03 -0.01 -0.06 -0.46 -0.59 0.01 -0.06 0.41c-0.13,0.02 -0.26,0.05 -0.38,0.09l-0.24 -0.31zm-18.57 -5.99c0.04,0.36 0.04,0.83 0.1,1.18 0.06,0.33 0.12,0.72 0.16,1.06 0.26,1.9 1.03,4.04 1.84,5.69 1.55,3.17 4.24,6.03 7.11,7.89 8.18,5.27 18.94,3.76 25.47,-3.26 2.42,-2.6 4.45,-6.31 5.02,-9.98 0.4,-2.57 0.48,-4.29 0.07,-6.92 -0.11,-0.73 -0.29,-1.33 -0.46,-2.01 -0.87,-3.5 -3.2,-7.08 -5.67,-9.34 -3.54,-3.23 -8.38,-5.61 -14.68,-5.33 -6.47,0.28 -12.38,3.85 -15.83,9.2 -0.94,1.46 -1.05,1.86 -1.69,3.28 -0.95,2.1 -1.71,6.24 -1.45,8.53zm12.52 -5.69l-0.04 0.91 3.63 -0.01c0.14,-0.28 0.05,-0.64 0.24,-0.94 0.02,-0.25 0.21,-0.79 0.3,-1 0.15,-0.35 0.3,-0.55 0.46,-0.79 0.07,-0.18 0.14,-0.25 0.31,-0.34 0.09,-0.04 0.52,-0.44 1.06,-0.61 2.51,-0.77 4.98,1 4.53,3.54 -0.15,0.88 -0.74,1.44 -1.31,1.98 -0.05,0.13 0.01,0.03 -0.08,0.15 -0.03,0.04 -0.05,0.05 -0.1,0.09 -0.1,0.09 -0.08,0.08 -0.22,0.16 -0.25,0.13 -1.24,1.07 -1.49,1.34 -0.48,0.54 -0.83,0.93 -1.23,1.59 -0.67,1.08 -0.81,3.15 -0.8,4.51 0,0.06 0,0.11 0.01,0.18 0.07,0.31 1.2,0.14 1.75,0.14 0.31,0 1.67,0.13 1.74,-0.11 0.06,-0.2 -0.03,-1.44 0.17,-2.42 0.16,-0.74 0.43,-1.11 1.01,-1.67 1.89,-1.81 4.25,-3.18 4.32,-6.41 0.02,-0.85 -0.09,-1.66 -0.36,-2.33 -0.74,-1.81 -2.33,-3.26 -4.3,-3.69 -1.55,-0.34 -3.18,-0.47 -4.76,-0.02 -1.94,0.55 -3.6,1.96 -4.31,3.7 -0.18,0.44 -0.56,1.51 -0.53,2.06zm3.82 -0.04c-0.19,0.29 -0.1,0.66 -0.24,0.94l-3.63 0.01 0.04 -0.91c-0.07,0.05 -0.07,-0.01 -0.1,0.24 -0.13,1.01 -0.23,0.75 1.91,0.75l1.43 0c0.33,-0 0.32,0.03 0.41,-0.06 0.1,-0.13 0.16,-0.75 0.16,-0.97zm-9.15 18.62l-0.21 0.03 0.02 -0.26c-0.12,0.14 -0.14,0.19 -0.15,0.4 0.16,-0.02 0.18,0 0.33,-0.17zm22.42 -25.84c-0.1,-0.15 -0.09,-0.14 -0.26,-0.2 0.09,0.15 0.09,0.14 0.26,0.2zm-8.32 10.39c0.15,-0.08 0.12,-0.07 0.22,-0.16 0.05,-0.04 0.07,-0.05 0.1,-0.09 0.09,-0.12 0.03,-0.02 0.08,-0.15 -0.17,0.1 -0.31,0.24 -0.4,0.4zm-4.19 -4.97c0.15,-0.09 0.24,-0.18 0.31,-0.34 -0.17,0.09 -0.24,0.16 -0.31,0.34zm14.77 16.12c0.16,-0.11 0.14,-0.09 0.2,-0.27 -0.12,0.08 -0.18,0.11 -0.2,0.27z"/>
 </g>
</svg>
