<?xml version="1.0" encoding="UTF-8"?>
<!DOCTYPE svg PUBLIC "-//W3C//DTD SVG 1.1//EN" "http://www.w3.org/Graphics/SVG/1.1/DTD/svg11.dtd">
<!-- Creator: CorelDRAW 2018 (64-Bit Not for commercial use) -->
<svg xmlns="http://www.w3.org/2000/svg" xml:space="preserve" width="9.2873mm" height="9.2283mm" version="1.1" style="shape-rendering:geometricPrecision; text-rendering:geometricPrecision; image-rendering:optimizeQuality; fill-rule:evenodd; clip-rule:evenodd"
viewBox="0 0 41.82 41.55"
 xmlns:xlink="http://www.w3.org/1999/xlink">
 <defs>
  <style type="text/css">
   <![CDATA[
    .fil0 {fill:#65AA33}
    .fil1 {fill:white;fill-rule:nonzero}
   ]]>
  </style>
 </defs>
 <g id="Layer_x0020_1">
  <metadata id="CorelCorpID_0Corel-Layer"/>
  <polygon class="fil0" points="-0,-0 41.82,-0 41.82,41.55 -0,41.55 "/>
  <path class="fil1" d="M18.24 12.41c0.39,0 0.7,-0.31 0.7,-0.7 0,-0.39 -0.31,-0.7 -0.7,-0.7 -0.39,0 -0.7,0.31 -0.7,0.7 0,0.39 0.31,0.7 0.7,0.7zm5.34 0c0.39,0 0.7,-0.31 0.7,-0.7 0,-0.39 -0.31,-0.7 -0.7,-0.7 -0.39,0 -0.7,0.31 -0.7,0.7 0,0.39 0.31,0.7 0.7,0.7zm-2.67 0c0.39,0 0.7,-0.31 0.7,-0.7 0,-0.39 -0.31,-0.7 -0.7,-0.7 -0.39,0 -0.7,0.31 -0.7,0.7 0,0.39 0.31,0.7 0.7,0.7zm-2.67 16.73c-0.39,0 -0.7,0.31 -0.7,0.7 0,0.39 0.31,0.7 0.7,0.7 0.39,0 0.7,-0.31 0.7,-0.7 0,-0.39 -0.31,-0.7 -0.7,-0.7zm5.34 0c-0.39,0 -0.7,0.31 -0.7,0.7 0,0.39 0.31,0.7 0.7,0.7 0.39,0 0.7,-0.31 0.7,-0.7 0,-0.39 -0.31,-0.7 -0.7,-0.7zm-2.67 0c-0.39,0 -0.7,0.31 -0.7,0.7 0,0.39 0.31,0.7 0.7,0.7 0.39,0 0.7,-0.31 0.7,-0.7 0,-0.39 -0.31,-0.7 -0.7,-0.7zm9.06 -11.73c-0.39,0 -0.7,0.31 -0.7,0.7 0,0.39 0.31,0.7 0.7,0.7 0.39,0 0.7,-0.31 0.7,-0.7 0,-0.39 -0.31,-0.7 -0.7,-0.7zm0 5.34c-0.39,0 -0.7,0.31 -0.7,0.7 0,0.39 0.31,0.7 0.7,0.7 0.39,0 0.7,-0.31 0.7,-0.7 0,-0.39 -0.31,-0.7 -0.7,-0.7zm0 -2.67c-0.39,0 -0.7,0.31 -0.7,0.7 0,0.39 0.31,0.7 0.7,0.7 0.39,0 0.7,-0.31 0.7,-0.7 0,-0.39 -0.31,-0.7 -0.7,-0.7zm-18.13 -1.27c0.39,0 0.7,-0.31 0.7,-0.7 0,-0.39 -0.31,-0.7 -0.7,-0.7 -0.39,0 -0.7,0.31 -0.7,0.7 0,0.39 0.31,0.7 0.7,0.7zm0 5.34c0.39,0 0.7,-0.31 0.7,-0.7 0,-0.39 -0.31,-0.7 -0.7,-0.7 -0.39,0 -0.7,0.31 -0.7,0.7 0,0.39 0.31,0.7 0.7,0.7zm0 -2.67c0.39,0 0.7,-0.31 0.7,-0.7 0,-0.39 -0.31,-0.7 -0.7,-0.7 -0.39,0 -0.7,0.31 -0.7,0.7 0,0.39 0.31,0.7 0.7,0.7zm20.46 10.64c-0.59,0.61 -1.42,0.99 -2.34,0.99 -0.92,0 -1.75,-0.38 -2.34,-0.99l0 -0.19c0,-0.71 0.46,-1.31 1.09,-1.53 0.35,0.24 0.78,0.39 1.25,0.39 0.46,0 0.89,-0.15 1.25,-0.39 0.63,0.22 1.09,0.82 1.09,1.53l0 0.19zm-11.39 -14.31c0.78,0 1.41,0.63 1.41,1.41 0,0.78 -0.63,1.41 -1.41,1.41 -0.78,0 -1.41,-0.63 -1.41,-1.41 0,-0.78 0.63,-1.41 1.41,-1.41zm2.34 4.95c-0.59,0.61 -1.42,0.99 -2.34,0.99 -0.92,0 -1.75,-0.38 -2.34,-1l0 -0.19c0,-0.71 0.46,-1.31 1.09,-1.53 0.35,0.24 0.78,0.39 1.25,0.39 0.46,0 0.89,-0.15 1.25,-0.39 0.63,0.22 1.09,0.82 1.09,1.53l0 0.19zm6.72 4.4c0.78,0 1.41,0.63 1.41,1.41 0,0.78 -0.63,1.41 -1.41,1.41 -0.78,0 -1.41,-0.63 -1.41,-1.41 0,-0.78 0.63,-1.41 1.41,-1.41zm-15.78 4.95c-0.59,0.61 -1.42,0.99 -2.34,0.99 -0.92,0 -1.75,-0.38 -2.34,-0.99l0 -0.19c0,-0.71 0.46,-1.31 1.09,-1.53 0.35,0.24 0.78,0.39 1.25,0.39 0.46,0 0.89,-0.15 1.25,-0.39 0.63,0.22 1.09,0.82 1.09,1.53l0 0.19zm-2.34 -4.95c0.78,0 1.41,0.63 1.41,1.41 0,0.78 -0.63,1.41 -1.41,1.41 -0.78,0 -1.41,-0.63 -1.41,-1.41 0,-0.78 0.63,-1.41 1.41,-1.41zm2.34 -13.18c-0.59,0.61 -1.42,0.99 -2.34,0.99 -0.92,0 -1.75,-0.38 -2.34,-0.99l0 -0.19c0,-0.71 0.46,-1.31 1.09,-1.53 0.35,0.24 0.78,0.39 1.25,0.39 0.46,0 0.89,-0.15 1.25,-0.39 0.63,0.22 1.09,0.82 1.09,1.53l0 0.19zm-2.34 -4.95c0.78,0 1.41,0.63 1.41,1.41 0,0.78 -0.63,1.41 -1.41,1.41 -0.78,0 -1.41,-0.63 -1.41,-1.41 0,-0.78 0.63,-1.41 1.41,-1.41zm15.78 4.76c0,-0.71 0.46,-1.31 1.09,-1.53 0.35,0.24 0.78,0.39 1.25,0.39 0.46,0 0.89,-0.15 1.25,-0.39 0.63,0.22 1.09,0.82 1.09,1.53l0 0.19c-0.59,0.61 -1.42,0.99 -2.34,0.99 -0.92,0 -1.75,-0.38 -2.34,-0.99l0 -0.19zm2.34 -4.76c0.78,0 1.41,0.63 1.41,1.41 0,0.78 -0.63,1.41 -1.41,1.41 -0.78,0 -1.41,-0.63 -1.41,-1.41 0,-0.78 0.63,-1.41 1.41,-1.41zm0 16.36c-1.01,0 -1.94,0.34 -2.69,0.92l-2.24 -2.24c0.72,-0.9 1.16,-2.05 1.16,-3.3 0,-1.25 -0.43,-2.39 -1.16,-3.3l2.24 -2.24c0.75,0.57 1.68,0.91 2.69,0.91 2.45,0 4.44,-1.99 4.44,-4.44 0,-2.45 -1.99,-4.44 -4.44,-4.44 -2.45,0 -4.44,1.99 -4.44,4.44 0,1.01 0.34,1.95 0.92,2.69l-2.24 2.24c-0.91,-0.72 -2.05,-1.16 -3.3,-1.16 -1.25,0 -2.39,0.43 -3.3,1.16l-2.24 -2.24c0.57,-0.75 0.92,-1.68 0.92,-2.69 0,-2.45 -1.99,-4.44 -4.44,-4.44 -2.45,0 -4.44,1.99 -4.44,4.44 0,2.45 1.99,4.44 4.44,4.44 1.01,0 1.94,-0.34 2.69,-0.91l2.24 2.24c-0.72,0.9 -1.16,2.05 -1.16,3.3 0,1.25 0.44,2.39 1.16,3.3l-2.24 2.24c-0.75,-0.57 -1.68,-0.92 -2.69,-0.92 -2.45,0 -4.44,1.99 -4.44,4.44 0,2.45 1.99,4.44 4.44,4.44 2.45,0 4.44,-1.99 4.44,-4.44 0,-1.01 -0.34,-1.95 -0.92,-2.69l2.24 -2.24c0.9,0.72 2.05,1.16 3.3,1.16 1.25,0 2.39,-0.43 3.3,-1.16l2.24 2.24c-0.57,0.75 -0.92,1.68 -0.92,2.69 0,2.45 1.99,4.44 4.44,4.44 2.45,0 4.44,-1.99 4.44,-4.44 0,-2.45 -1.99,-4.44 -4.44,-4.44z"/>
 </g>
</svg>
