<?xml version="1.0" encoding="UTF-8"?>
<!DOCTYPE svg PUBLIC "-//W3C//DTD SVG 1.1//EN" "http://www.w3.org/Graphics/SVG/1.1/DTD/svg11.dtd">
<!-- Creator: CorelDRAW 2018 (64-Bit Not for commercial use) -->
<svg xmlns="http://www.w3.org/2000/svg" xml:space="preserve" width="4.5mm" height="4.5mm" version="1.1" style="shape-rendering:geometricPrecision; text-rendering:geometricPrecision; image-rendering:optimizeQuality; fill-rule:evenodd; clip-rule:evenodd"
viewBox="0 0 8.98 8.98"
 xmlns:xlink="http://www.w3.org/1999/xlink">
 <defs>
  <style type="text/css">
   <![CDATA[
    .fil0 {fill:#65AA33}
   ]]>
  </style>
 </defs>
 <g id="Layer_x0020_1">
  <metadata id="CorelCorpID_0Corel-Layer"/>
  <path class="fil0" d="M0.7 0l7.58 0c0.39,0 0.7,0.32 0.7,0.7l0 4.82c0,0.03 -0,0.06 -0.01,0.09 -0.01,0.05 -0.04,0.09 -0.08,0.11 -0.05,0.02 -0.1,0.02 -0.14,-0.01 -0.09,-0.07 -0.2,-0.11 -0.32,-0.13 -0.07,-0.01 -0.11,-0.07 -0.11,-0.14l0 -4.71c0,-0.06 -0.05,-0.12 -0.12,-0.12l-6.8 0c-0.06,0 -0.12,0.05 -0.12,0.12l0 4.75c0,0.06 0.05,0.12 0.12,0.12l3.47 0c0.02,0 0.05,0.02 0.05,0.04 0.01,0.02 -0,0.05 -0.02,0.06 -0.15,0.11 -0.23,0.25 -0.27,0.41 -0.01,0.06 -0.07,0.11 -0.14,0.11l-3.81 0c-0.39,0 -0.7,-0.32 -0.7,-0.7l0 -4.82c0,-0.39 0.32,-0.7 0.7,-0.7zm-0.05 2.79c0.18,0 0.33,0.15 0.33,0.33 0,0.18 -0.15,0.33 -0.33,0.33 -0.18,0 -0.33,-0.15 -0.33,-0.33 0,-0.18 0.15,-0.33 0.33,-0.33zm6.18 2.94c0.37,-0.15 0.55,-0.02 0.65,0.13 0.34,-0.12 0.49,0.03 0.56,0.1 0.01,0.01 0.05,0.05 0.13,0.04 0.27,-0.07 0.46,0.1 0.48,0.28l0.17 1.57c0.01,0.12 0,0.22 -0.02,0.33l-0.11 0.43c-0.03,0.14 -0.15,0.23 -0.29,0.24l-1.74 0.14c-0.12,0.01 -0.22,-0.04 -0.29,-0.13l-0.58 -0.82c-0.07,-0.1 -0.13,-0.2 -0.18,-0.32l-0.5 -1.15c-0.27,-0.54 0.35,-0.82 0.61,-0.36l0.51 0.87 -0.39 -2.82c-0.07,-0.45 0.47,-0.54 0.56,-0.11l0.3 1.51c0.02,0.08 0.1,0.08 0.14,0.06zm-2.15 -4.33c-0.92,0 -1.67,0.75 -1.67,1.67 0,0.92 0.75,1.67 1.67,1.67 0.28,0 0.55,-0.07 0.78,-0.19 0.05,-0.03 0.08,-0.08 0.07,-0.14l-0.01 -0.1c-0.06,-0.34 0.12,-0.69 0.48,-0.76 0.06,-0.01 0.11,-0.01 0.16,-0.01 0.07,0.01 0.13,-0.04 0.15,-0.11 0.03,-0.12 0.04,-0.24 0.04,-0.37 0,-0.92 -0.75,-1.67 -1.67,-1.67zm-0.2 0.78l0.97 0.69c0.07,0.05 0.1,0.12 0.1,0.2 0,0.08 -0.04,0.15 -0.1,0.2l-0.97 0.69c-0.08,0.05 -0.17,0.06 -0.25,0.02 -0.08,-0.04 -0.13,-0.12 -0.13,-0.22l0 -1.39c0,-0.09 0.05,-0.17 0.13,-0.22 0.08,-0.04 0.18,-0.04 0.25,0.02z"/>
 </g>
</svg>
