<?xml version="1.0" encoding="UTF-8"?>
<!DOCTYPE svg PUBLIC "-//W3C//DTD SVG 1.1//EN" "http://www.w3.org/Graphics/SVG/1.1/DTD/svg11.dtd">
<!-- Creator: CorelDRAW 2018 (64-Bit Not for commercial use) -->
<svg xmlns="http://www.w3.org/2000/svg" xml:space="preserve" width="4.5345mm" height="4.5mm" version="1.1" style="shape-rendering:geometricPrecision; text-rendering:geometricPrecision; image-rendering:optimizeQuality; fill-rule:evenodd; clip-rule:evenodd"
viewBox="0 0 9.92 9.84"
 xmlns:xlink="http://www.w3.org/1999/xlink">
 <defs>
  <style type="text/css">
   <![CDATA[
    .fil0 {fill:#418C0B}
   ]]>
  </style>
 </defs>
 <g id="Layer_x0020_1">
  <metadata id="CorelCorpID_0Corel-Layer"/>
  <g id="_1712745194864">
   <g>
    <path class="fil0" d="M2.74 3.35c-0.14,0.51 -0.14,1.83 -0.09,2.4 0.01,0.18 0.05,0.63 0.1,0.75l1.95 -0 -0 -3.15 -1.95 0z"/>
    <path class="fil0" d="M2.11 5.73c-0.04,-0.57 -0.04,-1.08 -0,-1.65l0.08 -0.74 -1.93 0c-0.17,0.4 -0.26,1.1 -0.26,1.58 0,0.41 0.09,1.22 0.26,1.57l1.93 -0 -0.08 -0.76z"/>
    <path class="fil0" d="M9.66 6.49c0.07,-0.1 0.17,-0.57 0.19,-0.73 0.13,-0.74 0.08,-1.75 -0.19,-2.42l-1.93 0c-0,0.09 0.03,0.26 0.04,0.36 0.07,0.64 0.09,1.38 0.04,2.03 -0.02,0.26 -0.07,0.51 -0.08,0.76l1.93 -0z"/>
    <path class="fil0" d="M6.49 5.37c-0.04,0.04 -0.18,0.62 -0.24,0.73 -0.03,-0.04 -0.48,-1.42 -0.48,-1.45 0.07,0.01 1.43,0.46 1.46,0.49l-0.56 0.17c-0.04,0.01 -0.16,0.04 -0.18,0.06zm-1.26 1.13c0.3,0.02 1.29,0 1.68,0 0.21,0 0.26,0.03 0.27,-0.05 0.15,-0.65 0.15,-2.47 -0.01,-3.11l-1.95 0 0.01 3.15z"/>
    <path class="fil0" d="M3.97 9.41c0.11,0.11 0.48,0.42 0.72,0.43l-0 -2.81 -1.84 -0c0.01,0.21 0.19,0.72 0.26,0.91 0.2,0.53 0.48,1.07 0.86,1.46z"/>
    <path class="fil0" d="M5.23 9.84c0.25,-0.02 0.6,-0.32 0.72,-0.44 0.38,-0.39 0.66,-0.93 0.86,-1.46 0.07,-0.2 0.25,-0.7 0.26,-0.91l-1.84 0 0 2.81z"/>
    <path class="fil0" d="M2.85 2.81l1.85 0 0 -2.81c-0.24,0.01 -0.62,0.33 -0.72,0.43 -0.38,0.39 -0.66,0.93 -0.86,1.46 -0.08,0.22 -0.24,0.68 -0.27,0.91z"/>
    <path class="fil0" d="M5.23 2.81l1.84 0c-0,-0.35 -0.43,-1.36 -0.63,-1.71 -0.15,-0.25 -0.32,-0.49 -0.49,-0.67 -0.12,-0.12 -0.47,-0.41 -0.72,-0.44l-0 2.81z"/>
    <path class="fil0" d="M0.48 2.81c0.22,0 1.73,0.02 1.81,-0.01l0.2 -0.74c0.18,-0.58 0.48,-1.26 0.86,-1.73 0.04,-0.04 0.08,-0.09 0.11,-0.14 -0.21,0.03 -0.8,0.32 -0.97,0.42 -0.58,0.34 -1.09,0.78 -1.49,1.31 -0.1,0.14 -0.48,0.69 -0.53,0.88z"/>
    <path class="fil0" d="M0.48 7.03c0.1,0.28 0.37,0.68 0.53,0.88 0.43,0.56 0.86,0.94 1.49,1.31 0.2,0.12 0.73,0.38 0.97,0.42 -0.05,-0.08 -0.14,-0.18 -0.21,-0.27 -0.07,-0.09 -0.13,-0.18 -0.19,-0.28 -0.37,-0.61 -0.62,-1.35 -0.77,-2.06l-1.82 0z"/>
    <path class="fil0" d="M6.46 9.64c0.23,-0.04 0.8,-0.32 0.98,-0.43 0.39,-0.24 0.87,-0.6 1.16,-0.93 0.24,-0.28 0.75,-0.92 0.84,-1.26l-1.81 0c-0.03,0.06 -0.08,0.29 -0.1,0.37 -0.1,0.38 -0.2,0.69 -0.36,1.06 -0.33,0.78 -0.64,1.03 -0.72,1.18z"/>
    <path class="fil0" d="M7.62 2.81l1.82 0c-0.06,-0.29 -0.61,-1 -0.84,-1.26 -0.12,-0.13 -0.24,-0.23 -0.36,-0.34 -0.22,-0.21 -0.51,-0.41 -0.81,-0.58 -0.2,-0.11 -0.74,-0.39 -0.98,-0.43l0.2 0.26c0.47,0.63 0.8,1.57 0.97,2.35z"/>
   </g>
  </g>
 </g>
</svg>
