<?xml version="1.0" encoding="UTF-8"?>
<svg id="Layer_1" xmlns="http://www.w3.org/2000/svg" version="1.1" viewBox="0 0 9.9 9.9">
  <!-- Generator: Adobe Illustrator 29.1.0, SVG Export Plug-In . SVG Version: 2.1.0 Build 142)  -->
  <defs>
    <style>
      .st0 {
        fill: #fff;
        fill-rule: evenodd;
      }
    </style>
  </defs>
  <g id="Layer_x5F_1">
    <g id="_2466879184816">
      <g>
        <path class="st0" d="M7.1,2c.1.1,1.1,1.1,1.1,1.1l.6-.6c.1-.1,0-.1-.1-.4,0,0,0-.1-.1-.2l-.5-.5s-.1-.1-.2-.2c0,0-.1,0-.2,0-.1.1-.2.2-.3.3,0,0-.2.2-.3.3h0Z"/>
        <path class="st0" d="M5,4.2l.3.3,1.5-1.5c0,0,.5-.5.5-.5,0,0-.2-.3-.3-.3l-2,2h0Z"/>
        <path class="st0" d="M5.8,5l.3.3s.4-.4.5-.5l1.3-1.3s.2-.2.3-.3c0,0-.3-.3-.3-.3,0,0-2,2-2,2Z"/>
        <path class="st0" d="M2.9,6c-.2,0-.2.3,0,.3.6,0,3.9,0,3.9,0,.1,0,.1-.3,0-.3h-3.9,0Z"/>
        <path class="st0" d="M6,5.4c-.1-.1-1.1-1.1-1.1-1.1,0,.2,0,.5-.1.7-.2.9-.3.7.9.5,0,0,.1,0,.2,0,0,0,.1,0,.2,0h0Z"/>
        <path class="st0" d="M4.7,4.2h-1.7c0,0-.2,0-.2,0s0,.1,0,.2c0,0,1.5,0,1.8,0s0,0,.1-.3Z"/>
        <path class="st0" d="M4.5,5.4v-.3c-.3,0-1,0-1.4,0s-.3,0-.4.1c0,.2.1.2.3.2h1.4Z"/>
      </g>
      <path class="st0" d="M5.3,3.3c.3,0,.2,0,.4-.1,0,0,.2-.2.2-.3h-2.7c-.8,0-1.4-.1-1.4.8v2.5c0,.3,0,.8.1,1,.2.3.6.2,1,.2,0,.2,0,.6,0,.8.1.3.6.5.9.1l.7-.7h.1c0-.1,0-.2.1-.2h1.9c.4,0,.7,0,1-.2.2-.2.2-.3.2-.6v-2.7s0,0,0,0c-.4.4-.3.2-.3.6v1.8c0,.4,0,.7-.3.7h-2.4c-.1,0-.2,0-.3,0l-.7.7c-.1.1-.3.4-.3.1v-.9h-.4c-.4,0-.8,0-.8-.4v-3c0-.4.2-.4.6-.4h2.5Z"/>
    </g>
  </g>
</svg>