<?xml version="1.0" encoding="UTF-8"?>
<!DOCTYPE svg PUBLIC "-//W3C//DTD SVG 1.1//EN" "http://www.w3.org/Graphics/SVG/1.1/DTD/svg11.dtd">
<!-- Creator: CorelDRAW 2018 (64-Bit Not for commercial use) -->
<svg xmlns="http://www.w3.org/2000/svg" xml:space="preserve" width="5.7693mm" height="3.4566mm" version="1.1" style="shape-rendering:geometricPrecision; text-rendering:geometricPrecision; image-rendering:optimizeQuality; fill-rule:evenodd; clip-rule:evenodd"
viewBox="0 0 13.74 8.23"
 xmlns:xlink="http://www.w3.org/1999/xlink">
 <defs>
  <style type="text/css">
   <![CDATA[
    .fil1 {fill:#82BF3F}
    .fil0 {fill:#83BF3F}
    .fil2 {fill:#84C03E}
    .fil3 {fill:#85C03E}
    .fil4 {fill:#86C03D}
    .fil5 {fill:#86C13D}
    .fil6 {fill:#87C13C}
    .fil7 {fill:#88C13C}
    .fil8 {fill:#89C23B}
    .fil9 {fill:#8AC23B}
    .fil10 {fill:#8BC23B}
    .fil11 {fill:#8CC33A}
    .fil13 {fill:#8DC339}
    .fil12 {fill:#8DC33A}
    .fil14 {fill:#8EC439}
    .fil15 {fill:#8FC438}
    .fil16 {fill:#90C438}
    .fil17 {fill:#91C538}
    .fil18 {fill:#92C537}
    .fil19 {fill:#93C537}
    .fil20 {fill:#94C636}
    .fil21 {fill:#95C635}
    .fil22 {fill:#96C735}
    .fil23 {fill:#97C734}
    .fil24 {fill:#98C734}
    .fil25 {fill:#99C834}
    .fil26 {fill:#9AC833}
    .fil27 {fill:#9BC833}
    .fil28 {fill:#9BC932}
    .fil29 {fill:#9CC932}
    .fil30 {fill:#9DC931}
    .fil31 {fill:#9ECA31}
    .fil32 {fill:#9FCA30}
    .fil33 {fill:#A0CA30}
    .fil34 {fill:#A1CB30}
    .fil35 {fill:#A2CB2F}
    .fil36 {fill:#A3CC2E}
    .fil37 {fill:#A4CC2E}
    .fil38 {fill:#A5CC2D}
    .fil39 {fill:#A6CC2D}
    .fil40 {fill:#A7CD2C}
    .fil41 {fill:#A8CD2C}
    .fil42 {fill:#A9CD2C}
    .fil43 {fill:#A9CE2B}
    .fil44 {fill:#AACE2B}
    .fil45 {fill:#ABCE2A}
    .fil46 {fill:#ACCF2A}
    .fil47 {fill:#ADCF29}
    .fil48 {fill:#AECF29}
    .fil49 {fill:#AFD029}
    .fil50 {fill:#B0D028}
    .fil51 {fill:#B1D127}
    .fil52 {fill:#B2D127}
    .fil53 {fill:#B3D126}
    .fil54 {fill:#B4D226}
    .fil55 {fill:#B5D225}
    .fil56 {fill:#B6D225}
    .fil58 {fill:#B7D324}
    .fil57 {fill:#B7D325}
    .fil59 {fill:#B8D324}
    .fil60 {fill:#B9D423}
    .fil61 {fill:#BAD423}
    .fil62 {fill:#BBD422}
    .fil63 {fill:#BCD522}
    .fil64 {fill:#BDD521}
    .fil65 {fill:#BED521}
    .fil66 {fill:#BED621}
    .fil67 {fill:#BFD620}
    .fil68 {fill:#C0D620}
    .fil69 {fill:#C1D71F}
    .fil70 {fill:#C2D71F}
    .fil71 {fill:#C3D81E}
    .fil72 {fill:#C5D81D}
    .fil73 {fill:#C6D81D}
    .fil74 {fill:#C7D91C}
    .fil75 {fill:#C8D91C}
    .fil76 {fill:#C9DA1B}
    .fil77 {fill:#CADA1B}
    .fil78 {fill:#CBDB1A}
    .fil79 {fill:#CCDB1A}
    .fil80 {fill:#CDDB19}
    .fil81 {fill:#CFDC18}
    .fil82 {fill:#D0DC18}
    .fil83 {fill:#D1DD17}
    .fil84 {fill:#D2DD17}
    .fil85 {fill:#D3DD16}
    .fil86 {fill:#D4DE16}
    .fil87 {fill:#D5DE15}
    .fil88 {fill:#D6DF14}
    .fil89 {fill:#D7DF14}
    .fil90 {fill:#D9E013}
    .fil91 {fill:#DAE013}
    .fil92 {fill:#DBE012}
    .fil93 {fill:#DCE112}
    .fil94 {fill:#DDE111}
    .fil95 {fill:#DEE211}
    .fil96 {fill:#DFE210}
    .fil97 {fill:#E0E20F}
    .fil98 {fill:#E1E30F}
    .fil99 {fill:#E3E30E}
    .fil100 {fill:#E4E40E}
    .fil101 {fill:#E5E40D}
    .fil102 {fill:#E6E50D}
    .fil103 {fill:#E7E50C}
    .fil104 {fill:#E8E50C}
    .fil105 {fill:#E9E60B}
    .fil106 {fill:#EAE60A}
    .fil107 {fill:#ECE70A}
    .fil108 {fill:#EDE709}
    .fil109 {fill:#EEE809}
    .fil110 {fill:#EFE808}
    .fil111 {fill:#F0E808}
    .fil112 {fill:#F1E907}
    .fil113 {fill:#F2E906}
    .fil114 {fill:#F3EA06}
    .fil115 {fill:#F4EA05}
    .fil116 {fill:#F6EA05}
    .fil117 {fill:#F7EB04}
    .fil118 {fill:#F8EB04}
    .fil119 {fill:#F9EC03}
    .fil120 {fill:#FAEC03}
    .fil121 {fill:#FBED02}
    .fil122 {fill:#FCED01}
    .fil123 {fill:#FDED01}
    .fil124 {fill:#FEEE00}
    .fil251 {fill:#FF684A}
    .fil250 {fill:#FF6949}
    .fil249 {fill:#FF6A49}
    .fil248 {fill:#FF6B48}
    .fil247 {fill:#FF6C48}
    .fil246 {fill:#FF6D47}
    .fil245 {fill:#FF6E47}
    .fil244 {fill:#FF6F46}
    .fil242 {fill:#FF7045}
    .fil243 {fill:#FF7046}
    .fil241 {fill:#FF7145}
    .fil240 {fill:#FF7244}
    .fil239 {fill:#FF7344}
    .fil238 {fill:#FF7443}
    .fil237 {fill:#FF7543}
    .fil236 {fill:#FF7642}
    .fil235 {fill:#FF7742}
    .fil234 {fill:#FF7841}
    .fil233 {fill:#FF7941}
    .fil232 {fill:#FF7A40}
    .fil231 {fill:#FF7B40}
    .fil230 {fill:#FF7C3F}
    .fil229 {fill:#FF7D3F}
    .fil228 {fill:#FF7E3E}
    .fil226 {fill:#FF7F3D}
    .fil227 {fill:#FF7F3E}
    .fil225 {fill:#FF803D}
    .fil224 {fill:#FF813C}
    .fil223 {fill:#FF823B}
    .fil222 {fill:#FF833B}
    .fil221 {fill:#FF843A}
    .fil220 {fill:#FF853A}
    .fil219 {fill:#FF8639}
    .fil218 {fill:#FF8739}
    .fil217 {fill:#FF8838}
    .fil216 {fill:#FF8938}
    .fil215 {fill:#FF8A37}
    .fil214 {fill:#FF8B37}
    .fil213 {fill:#FF8C36}
    .fil212 {fill:#FF8D36}
    .fil211 {fill:#FF8E35}
    .fil210 {fill:#FF8F34}
    .fil209 {fill:#FF9034}
    .fil208 {fill:#FF9133}
    .fil207 {fill:#FF9233}
    .fil206 {fill:#FF9332}
    .fil205 {fill:#FF9432}
    .fil204 {fill:#FF9531}
    .fil203 {fill:#FF9631}
    .fil202 {fill:#FF9730}
    .fil201 {fill:#FF9830}
    .fil200 {fill:#FF992F}
    .fil199 {fill:#FF9A2F}
    .fil198 {fill:#FF9B2E}
    .fil197 {fill:#FF9C2D}
    .fil195 {fill:#FF9D2C}
    .fil196 {fill:#FF9D2D}
    .fil194 {fill:#FF9E2C}
    .fil193 {fill:#FF9F2B}
    .fil192 {fill:#FFA02B}
    .fil191 {fill:#FFA12A}
    .fil190 {fill:#FFA22A}
    .fil189 {fill:#FFA329}
    .fil188 {fill:#FFA429}
    .fil187 {fill:#FFA528}
    .fil186 {fill:#FFA628}
    .fil185 {fill:#FFA727}
    .fil184 {fill:#FFA827}
    .fil183 {fill:#FFA926}
    .fil182 {fill:#FFAA26}
    .fil181 {fill:#FFAB25}
    .fil180 {fill:#FFAC25}
    .fil179 {fill:#FFAD24}
    .fil178 {fill:#FFAE23}
    .fil177 {fill:#FFAF23}
    .fil176 {fill:#FFB022}
    .fil175 {fill:#FFB221}
    .fil174 {fill:#FFB321}
    .fil173 {fill:#FFB420}
    .fil172 {fill:#FFB51F}
    .fil171 {fill:#FFB61F}
    .fil170 {fill:#FFB81E}
    .fil169 {fill:#FFB91D}
    .fil168 {fill:#FFBA1D}
    .fil167 {fill:#FFBB1C}
    .fil166 {fill:#FFBC1B}
    .fil165 {fill:#FFBE1B}
    .fil164 {fill:#FFBF1A}
    .fil163 {fill:#FFC019}
    .fil162 {fill:#FFC119}
    .fil161 {fill:#FFC218}
    .fil160 {fill:#FFC417}
    .fil159 {fill:#FFC517}
    .fil158 {fill:#FFC616}
    .fil157 {fill:#FFC715}
    .fil156 {fill:#FFC815}
    .fil155 {fill:#FFCA14}
    .fil154 {fill:#FFCB13}
    .fil153 {fill:#FFCC13}
    .fil152 {fill:#FFCD12}
    .fil151 {fill:#FFCE11}
    .fil150 {fill:#FFD011}
    .fil149 {fill:#FFD110}
    .fil148 {fill:#FFD20F}
    .fil147 {fill:#FFD30F}
    .fil146 {fill:#FFD40E}
    .fil145 {fill:#FFD60E}
    .fil144 {fill:#FFD70D}
    .fil143 {fill:#FFD80C}
    .fil142 {fill:#FFD90C}
    .fil141 {fill:#FFDA0B}
    .fil140 {fill:#FFDB0A}
    .fil139 {fill:#FFDD0A}
    .fil138 {fill:#FFDE09}
    .fil137 {fill:#FFDF08}
    .fil136 {fill:#FFE008}
    .fil135 {fill:#FFE107}
    .fil134 {fill:#FFE306}
    .fil133 {fill:#FFE406}
    .fil132 {fill:#FFE505}
    .fil131 {fill:#FFE604}
    .fil130 {fill:#FFE704}
    .fil129 {fill:#FFE903}
    .fil128 {fill:#FFEA02}
    .fil127 {fill:#FFEB02}
    .fil126 {fill:#FFEC01}
    .fil125 {fill:#FFED00}
   ]]>
  </style>
    <clipPath id="id0">
     <path d="M8.46 1.84l-1.72 4.11 -0.04 0.01c-0.05,0.01 -0.1,0.02 -0.15,0.04 -0.1,0.04 -0.18,0.09 -0.26,0.17 -0.01,0 -0.01,0.01 -0.02,0.02 -0.02,0.02 -0.04,0.04 -0.06,0.06 -0.04,0.06 -0.07,0.1 -0.11,0.16l-0.03 0.06c-0.04,0.08 -0.06,0.19 -0.06,0.28 -0,0.07 0,0.13 0.01,0.2 0.01,0.07 0.04,0.17 0.08,0.23 0.01,0.02 0.02,0.05 0.04,0.07l0.08 0.11c0,0 0,0 0,0l0.09 0.09c0.06,0.05 0.12,0.09 0.19,0.12 0.03,0.01 0.06,0.03 0.09,0.03 0.01,0 0.01,0 0.01,0l0.05 0.01c0.01,0 0.03,0.01 0.04,0.01 0.07,0.01 0.15,0.01 0.22,0.01 0.14,-0.02 0.25,-0.05 0.36,-0.12l0.02 -0.01c0.04,-0.03 0.08,-0.06 0.12,-0.1 0.02,-0.02 0.03,-0.03 0.05,-0.05l0.08 -0.11c0.03,-0.05 0.06,-0.1 0.08,-0.16l0.01 -0.04c0,-0.01 0.01,-0.02 0.01,-0.04 0.02,-0.07 0.02,-0.12 0.03,-0.19 0,-0.05 0,-0.1 -0.01,-0.15 -0.01,-0.04 -0.01,-0.09 -0.03,-0.13 -0.02,-0.07 -0.05,-0.13 -0.08,-0.19 -0.01,-0.01 -0.01,-0.02 -0.02,-0.03l-0.03 -0.05c-0.03,-0.04 -0.06,-0.07 -0.1,-0.11l-0.03 -0.03 1.03 -4.3zm-8.46 5.98l13.74 0 0 0.4 -13.74 0 0 -0.4zm0.02 -1.21l3.38 0c0.01,-0.3 0.06,-0.6 0.16,-0.89l-3.17 -1.16c-0.23,0.66 -0.35,1.35 -0.36,2.04zm0.44 -2.32l3.19 1.16c0.11,-0.28 0.26,-0.54 0.44,-0.78l-2.6 -2.18c-0.44,0.54 -0.79,1.14 -1.04,1.79zm1.21 -2.01l2.6 2.18c0.2,-0.22 0.43,-0.42 0.68,-0.59l-1.69 -2.93c-0.6,0.36 -1.13,0.81 -1.59,1.33zm1.84 -1.46l1.68 2.91c0.27,-0.15 0.55,-0.26 0.85,-0.33l-0.58 -3.29c-0.68,0.13 -1.34,0.37 -1.95,0.71zm2.32 -0.74l0.57 3.26c0.15,-0.02 0.3,-0.03 0.45,-0.03 0.16,0 0.32,0.01 0.48,0.03l0.58 -3.26c-0.34,-0.06 -0.69,-0.08 -1.04,-0.08 -0.35,0 -0.69,0.03 -1.04,0.08zm2.45 0.03l-0.41 2.32 0.75 -1.79 0.42 0.14 -0.69 2.87c0.06,0.03 0.13,0.06 0.19,0.1l1.69 -2.93c-0.61,-0.34 -1.26,-0.58 -1.95,-0.71zm2.2 0.84l-1.7 2.94c0.25,0.17 0.47,0.36 0.67,0.59l2.62 -2.2c-0.45,-0.53 -0.99,-0.98 -1.59,-1.33zm1.76 1.55l-2.62 2.2c0.18,0.24 0.32,0.5 0.43,0.77l3.22 -1.17c-0.25,-0.65 -0.6,-1.26 -1.04,-1.79zm1.12 2.07l-3.2 1.17c0.09,0.28 0.14,0.58 0.15,0.88l3.41 0c-0.01,-0.7 -0.13,-1.39 -0.36,-2.04z"/>
    </clipPath>
 </defs>
 <g id="Layer_x0020_1">
  <metadata id="CorelCorpID_0Corel-Layer"/>
  <g>
   <g style="clip-path:url(#id0)">
    <polygon class="fil0" points="13.74,8.23 13.69,8.23 13.69,0 13.74,0 "/>
    <polygon id="1" class="fil1" points="13.71,8.23 13.63,8.23 13.63,0 13.71,0 "/>
    <polygon id="2" class="fil0" points="13.66,8.23 13.58,8.23 13.58,0 13.66,0 "/>
    <polygon id="3" class="fil2" points="13.61,8.23 13.53,8.23 13.53,0 13.61,0 "/>
    <polygon id="4" class="fil3" points="13.55,8.23 13.47,8.23 13.47,0 13.55,0 "/>
    <polygon id="5" class="fil4" points="13.5,8.23 13.42,8.23 13.42,0 13.5,0 "/>
    <polygon id="6" class="fil5" points="13.45,8.23 13.37,8.23 13.37,0 13.45,0 "/>
    <polygon id="7" class="fil6" points="13.39,8.23 13.31,8.23 13.31,0 13.39,0 "/>
    <polygon id="8" class="fil7" points="13.34,8.23 13.26,8.23 13.26,0 13.34,0 "/>
    <polygon id="9" class="fil8" points="13.29,8.23 13.21,8.23 13.21,0 13.29,0 "/>
    <polygon id="10" class="fil9" points="13.23,8.23 13.15,8.23 13.15,0 13.23,0 "/>
    <polygon id="11" class="fil10" points="13.18,8.23 13.1,8.23 13.1,0 13.18,0 "/>
    <polygon id="12" class="fil11" points="13.12,8.23 13.04,8.23 13.04,0 13.12,0 "/>
    <polygon id="13" class="fil12" points="13.07,8.23 12.99,8.23 12.99,0 13.07,0 "/>
    <polygon id="14" class="fil13" points="13.02,8.23 12.94,8.23 12.94,0 13.02,0 "/>
    <polygon id="15" class="fil14" points="12.96,8.23 12.88,8.23 12.88,0 12.96,0 "/>
    <polygon id="16" class="fil15" points="12.91,8.23 12.83,8.23 12.83,0 12.91,0 "/>
    <polygon id="17" class="fil16" points="12.86,8.23 12.78,8.23 12.78,0 12.86,0 "/>
    <polygon id="18" class="fil17" points="12.8,8.23 12.72,8.23 12.72,0 12.8,0 "/>
    <polygon id="19" class="fil18" points="12.75,8.23 12.67,8.23 12.67,0 12.75,0 "/>
    <polygon id="20" class="fil19" points="12.7,8.23 12.62,8.23 12.62,0 12.7,0 "/>
    <polygon id="21" class="fil20" points="12.64,8.23 12.56,8.23 12.56,0 12.64,0 "/>
    <polygon id="22" class="fil20" points="12.59,8.23 12.51,8.23 12.51,0 12.59,0 "/>
    <polygon id="23" class="fil21" points="12.54,8.23 12.46,8.23 12.46,0 12.54,0 "/>
    <polygon id="24" class="fil22" points="12.48,8.23 12.4,8.23 12.4,0 12.48,0 "/>
    <polygon id="25" class="fil23" points="12.43,8.23 12.35,8.23 12.35,0 12.43,0 "/>
    <polygon id="26" class="fil24" points="12.38,8.23 12.3,8.23 12.3,0 12.38,0 "/>
    <polygon id="27" class="fil25" points="12.32,8.23 12.24,8.23 12.24,0 12.32,0 "/>
    <polygon id="28" class="fil26" points="12.27,8.23 12.19,8.23 12.19,0 12.27,0 "/>
    <polygon id="29" class="fil27" points="12.22,8.23 12.14,8.23 12.14,0 12.22,0 "/>
    <polygon id="30" class="fil28" points="12.16,8.23 12.08,8.23 12.08,0 12.16,0 "/>
    <polygon id="31" class="fil29" points="12.11,8.23 12.03,8.23 12.03,0 12.11,0 "/>
    <polygon id="32" class="fil30" points="12.06,8.23 11.98,8.23 11.98,0 12.06,0 "/>
    <polygon id="33" class="fil31" points="12,8.23 11.92,8.23 11.92,0 12,0 "/>
    <polygon id="34" class="fil32" points="11.95,8.23 11.87,8.23 11.87,0 11.95,0 "/>
    <polygon id="35" class="fil33" points="11.89,8.23 11.81,8.23 11.81,0 11.89,0 "/>
    <polygon id="36" class="fil34" points="11.84,8.23 11.76,8.23 11.76,0 11.84,0 "/>
    <polygon id="37" class="fil35" points="11.79,8.23 11.71,8.23 11.71,0 11.79,0 "/>
    <polygon id="38" class="fil35" points="11.73,8.23 11.65,8.23 11.65,0 11.73,0 "/>
    <polygon id="39" class="fil36" points="11.68,8.23 11.6,8.23 11.6,0 11.68,0 "/>
    <polygon id="40" class="fil37" points="11.63,8.23 11.55,8.23 11.55,0 11.63,0 "/>
    <polygon id="41" class="fil38" points="11.57,8.23 11.49,8.23 11.49,0 11.57,0 "/>
    <polygon id="42" class="fil39" points="11.52,8.23 11.44,8.23 11.44,0 11.52,0 "/>
    <polygon id="43" class="fil40" points="11.47,8.23 11.39,8.23 11.39,0 11.47,0 "/>
    <polygon id="44" class="fil41" points="11.41,8.23 11.33,8.23 11.33,0 11.41,0 "/>
    <polygon id="45" class="fil42" points="11.36,8.23 11.28,8.23 11.28,0 11.36,0 "/>
    <polygon id="46" class="fil43" points="11.31,8.23 11.23,8.23 11.23,0 11.31,0 "/>
    <polygon id="47" class="fil44" points="11.25,8.23 11.17,8.23 11.17,0 11.25,0 "/>
    <polygon id="48" class="fil45" points="11.2,8.23 11.12,8.23 11.12,0 11.2,0 "/>
    <polygon id="49" class="fil46" points="11.15,8.23 11.07,8.23 11.07,0 11.15,0 "/>
    <polygon id="50" class="fil47" points="11.09,8.23 11.01,8.23 11.01,0 11.09,0 "/>
    <polygon id="51" class="fil48" points="11.04,8.23 10.96,8.23 10.96,0 11.04,0 "/>
    <polygon id="52" class="fil49" points="10.99,8.23 10.91,8.23 10.91,0 10.99,0 "/>
    <polygon id="53" class="fil50" points="10.93,8.23 10.85,8.23 10.85,0 10.93,0 "/>
    <polygon id="54" class="fil50" points="10.88,8.23 10.8,8.23 10.8,0 10.88,0 "/>
    <polygon id="55" class="fil51" points="10.83,8.23 10.74,8.23 10.74,0 10.83,0 "/>
    <polygon id="56" class="fil52" points="10.77,8.23 10.69,8.23 10.69,0 10.77,0 "/>
    <polygon id="57" class="fil53" points="10.72,8.23 10.64,8.23 10.64,0 10.72,0 "/>
    <polygon id="58" class="fil54" points="10.66,8.23 10.58,8.23 10.58,0 10.66,0 "/>
    <polygon id="59" class="fil55" points="10.61,8.23 10.53,8.23 10.53,0 10.61,0 "/>
    <polygon id="60" class="fil56" points="10.56,8.23 10.48,8.23 10.48,0 10.56,0 "/>
    <polygon id="61" class="fil57" points="10.5,8.23 10.42,8.23 10.42,0 10.5,0 "/>
    <polygon id="62" class="fil58" points="10.45,8.23 10.37,8.23 10.37,0 10.45,0 "/>
    <polygon id="63" class="fil59" points="10.4,8.23 10.32,8.23 10.32,0 10.4,0 "/>
    <polygon id="64" class="fil60" points="10.34,8.23 10.26,8.23 10.26,0 10.34,0 "/>
    <polygon id="65" class="fil61" points="10.29,8.23 10.21,8.23 10.21,0 10.29,0 "/>
    <polygon id="66" class="fil62" points="10.24,8.23 10.16,8.23 10.16,0 10.24,0 "/>
    <polygon id="67" class="fil63" points="10.18,8.23 10.1,8.23 10.1,0 10.18,0 "/>
    <polygon id="68" class="fil64" points="10.13,8.23 10.05,8.23 10.05,0 10.13,0 "/>
    <polygon id="69" class="fil65" points="10.08,8.23 10,8.23 10,0 10.08,0 "/>
    <polygon id="70" class="fil66" points="10.02,8.23 9.94,8.23 9.94,0 10.02,0 "/>
    <polygon id="71" class="fil67" points="9.97,8.23 9.89,8.23 9.89,0 9.97,0 "/>
    <polygon id="72" class="fil68" points="9.92,8.23 9.84,8.23 9.84,0 9.92,0 "/>
    <polygon id="73" class="fil69" points="9.86,8.23 9.78,8.23 9.78,0 9.86,0 "/>
    <polygon id="74" class="fil70" points="9.81,8.23 9.73,8.23 9.73,0 9.81,0 "/>
    <polygon id="75" class="fil71" points="9.76,8.23 9.68,8.23 9.68,0 9.76,0 "/>
    <polygon id="76" class="fil72" points="9.7,8.23 9.62,8.23 9.62,0 9.7,0 "/>
    <polygon id="77" class="fil73" points="9.65,8.23 9.57,8.23 9.57,0 9.65,0 "/>
    <polygon id="78" class="fil74" points="9.6,8.23 9.51,8.23 9.51,0 9.6,0 "/>
    <polygon id="79" class="fil75" points="9.54,8.23 9.46,8.23 9.46,0 9.54,0 "/>
    <polygon id="80" class="fil76" points="9.49,8.23 9.41,8.23 9.41,0 9.49,0 "/>
    <polygon id="81" class="fil77" points="9.43,8.23 9.35,8.23 9.35,0 9.43,0 "/>
    <polygon id="82" class="fil78" points="9.38,8.23 9.3,8.23 9.3,0 9.38,0 "/>
    <polygon id="83" class="fil79" points="9.33,8.23 9.25,8.23 9.25,0 9.33,0 "/>
    <polygon id="84" class="fil80" points="9.27,8.23 9.19,8.23 9.19,0 9.27,0 "/>
    <polygon id="85" class="fil81" points="9.22,8.23 9.14,8.23 9.14,0 9.22,0 "/>
    <polygon id="86" class="fil82" points="9.17,8.23 9.09,8.23 9.09,0 9.17,0 "/>
    <polygon id="87" class="fil83" points="9.11,8.23 9.03,8.23 9.03,0 9.11,0 "/>
    <polygon id="88" class="fil84" points="9.06,8.23 8.98,8.23 8.98,0 9.06,0 "/>
    <polygon id="89" class="fil85" points="9.01,8.23 8.93,8.23 8.93,0 9.01,0 "/>
    <polygon id="90" class="fil86" points="8.95,8.23 8.87,8.23 8.87,0 8.95,0 "/>
    <polygon id="91" class="fil87" points="8.9,8.23 8.82,8.23 8.82,0 8.9,0 "/>
    <polygon id="92" class="fil88" points="8.85,8.23 8.77,8.23 8.77,0 8.85,0 "/>
    <polygon id="93" class="fil89" points="8.79,8.23 8.71,8.23 8.71,0 8.79,0 "/>
    <polygon id="94" class="fil90" points="8.74,8.23 8.66,8.23 8.66,0 8.74,0 "/>
    <polygon id="95" class="fil91" points="8.69,8.23 8.61,8.23 8.61,0 8.69,0 "/>
    <polygon id="96" class="fil92" points="8.63,8.23 8.55,8.23 8.55,0 8.63,0 "/>
    <polygon id="97" class="fil93" points="8.58,8.23 8.5,8.23 8.5,0 8.58,0 "/>
    <polygon id="98" class="fil94" points="8.53,8.23 8.45,8.23 8.45,0 8.53,0 "/>
    <polygon id="99" class="fil95" points="8.47,8.23 8.39,8.23 8.39,0 8.47,0 "/>
    <polygon id="100" class="fil96" points="8.42,8.23 8.34,8.23 8.34,0 8.42,0 "/>
    <polygon id="101" class="fil97" points="8.37,8.23 8.29,8.23 8.29,0 8.37,0 "/>
    <polygon id="102" class="fil98" points="8.31,8.23 8.23,8.23 8.23,0 8.31,0 "/>
    <polygon id="103" class="fil99" points="8.26,8.23 8.18,8.23 8.18,0 8.26,0 "/>
    <polygon id="104" class="fil100" points="8.2,8.23 8.12,8.23 8.12,0 8.2,0 "/>
    <polygon id="105" class="fil101" points="8.15,8.23 8.07,8.23 8.07,0 8.15,0 "/>
    <polygon id="106" class="fil102" points="8.1,8.23 8.02,8.23 8.02,0 8.1,0 "/>
    <polygon id="107" class="fil103" points="8.04,8.23 7.96,8.23 7.96,0 8.04,0 "/>
    <polygon id="108" class="fil104" points="7.99,8.23 7.91,8.23 7.91,0 7.99,0 "/>
    <polygon id="109" class="fil105" points="7.94,8.23 7.86,8.23 7.86,0 7.94,0 "/>
    <polygon id="110" class="fil106" points="7.88,8.23 7.8,8.23 7.8,0 7.88,0 "/>
    <polygon id="111" class="fil107" points="7.83,8.23 7.75,8.23 7.75,0 7.83,0 "/>
    <polygon id="112" class="fil108" points="7.78,8.23 7.7,8.23 7.7,0 7.78,0 "/>
    <polygon id="113" class="fil109" points="7.72,8.23 7.64,8.23 7.64,0 7.72,0 "/>
    <polygon id="114" class="fil110" points="7.67,8.23 7.59,8.23 7.59,0 7.67,0 "/>
    <polygon id="115" class="fil111" points="7.62,8.23 7.54,8.23 7.54,0 7.62,0 "/>
    <polygon id="116" class="fil112" points="7.56,8.23 7.48,8.23 7.48,0 7.56,0 "/>
    <polygon id="117" class="fil113" points="7.51,8.23 7.43,8.23 7.43,0 7.51,0 "/>
    <polygon id="118" class="fil114" points="7.46,8.23 7.38,8.23 7.38,0 7.46,0 "/>
    <polygon id="119" class="fil115" points="7.4,8.23 7.32,8.23 7.32,0 7.4,0 "/>
    <polygon id="120" class="fil116" points="7.35,8.23 7.27,8.23 7.27,0 7.35,0 "/>
    <polygon id="121" class="fil117" points="7.3,8.23 7.22,8.23 7.22,0 7.3,0 "/>
    <polygon id="122" class="fil118" points="7.24,8.23 7.16,8.23 7.16,0 7.24,0 "/>
    <polygon id="123" class="fil119" points="7.19,8.23 7.11,8.23 7.11,0 7.19,0 "/>
    <polygon id="124" class="fil120" points="7.14,8.23 7.05,8.23 7.05,0 7.14,0 "/>
    <polygon id="125" class="fil121" points="7.08,8.23 7,8.23 7,0 7.08,0 "/>
    <polygon id="126" class="fil122" points="7.03,8.23 6.95,8.23 6.95,0 7.03,0 "/>
    <polygon id="127" class="fil123" points="6.97,8.23 6.89,8.23 6.89,0 6.97,0 "/>
    <polygon id="128" class="fil124" points="6.92,8.23 6.84,8.23 6.84,0 6.92,0 "/>
    <polygon id="129" class="fil125" points="6.87,8.23 6.79,8.23 6.79,0 6.87,0 "/>
    <polygon id="130" class="fil126" points="6.81,8.23 6.73,8.23 6.73,0 6.81,0 "/>
    <polygon id="131" class="fil127" points="6.76,8.23 6.68,8.23 6.68,0 6.76,0 "/>
    <polygon id="132" class="fil128" points="6.71,8.23 6.63,8.23 6.63,0 6.71,0 "/>
    <polygon id="133" class="fil129" points="6.65,8.23 6.57,8.23 6.57,0 6.65,0 "/>
    <polygon id="134" class="fil130" points="6.6,8.23 6.52,8.23 6.52,0 6.6,0 "/>
    <polygon id="135" class="fil131" points="6.55,8.23 6.47,8.23 6.47,0 6.55,0 "/>
    <polygon id="136" class="fil132" points="6.49,8.23 6.41,8.23 6.41,0 6.49,0 "/>
    <polygon id="137" class="fil133" points="6.44,8.23 6.36,8.23 6.36,0 6.44,0 "/>
    <polygon id="138" class="fil134" points="6.39,8.23 6.31,8.23 6.31,0 6.39,0 "/>
    <polygon id="139" class="fil135" points="6.33,8.23 6.25,8.23 6.25,0 6.33,0 "/>
    <polygon id="140" class="fil136" points="6.28,8.23 6.2,8.23 6.2,0 6.28,0 "/>
    <polygon id="141" class="fil137" points="6.23,8.23 6.15,8.23 6.15,0 6.23,0 "/>
    <polygon id="142" class="fil138" points="6.17,8.23 6.09,8.23 6.09,0 6.17,0 "/>
    <polygon id="143" class="fil139" points="6.12,8.23 6.04,8.23 6.04,0 6.12,0 "/>
    <polygon id="144" class="fil140" points="6.07,8.23 5.99,8.23 5.99,0 6.07,0 "/>
    <polygon id="145" class="fil141" points="6.01,8.23 5.93,8.23 5.93,0 6.01,0 "/>
    <polygon id="146" class="fil142" points="5.96,8.23 5.88,8.23 5.88,0 5.96,0 "/>
    <polygon id="147" class="fil143" points="5.91,8.23 5.82,8.23 5.82,0 5.91,0 "/>
    <polygon id="148" class="fil144" points="5.85,8.23 5.77,8.23 5.77,0 5.85,0 "/>
    <polygon id="149" class="fil145" points="5.8,8.23 5.72,8.23 5.72,0 5.8,0 "/>
    <polygon id="150" class="fil146" points="5.74,8.23 5.66,8.23 5.66,0 5.74,0 "/>
    <polygon id="151" class="fil147" points="5.69,8.23 5.61,8.23 5.61,0 5.69,0 "/>
    <polygon id="152" class="fil148" points="5.64,8.23 5.56,8.23 5.56,0 5.64,0 "/>
    <polygon id="153" class="fil149" points="5.58,8.23 5.5,8.23 5.5,0 5.58,0 "/>
    <polygon id="154" class="fil150" points="5.53,8.23 5.45,8.23 5.45,0 5.53,0 "/>
    <polygon id="155" class="fil151" points="5.48,8.23 5.4,8.23 5.4,0 5.48,0 "/>
    <polygon id="156" class="fil152" points="5.42,8.23 5.34,8.23 5.34,0 5.42,0 "/>
    <polygon id="157" class="fil153" points="5.37,8.23 5.29,8.23 5.29,0 5.37,0 "/>
    <polygon id="158" class="fil154" points="5.32,8.23 5.24,8.23 5.24,0 5.32,0 "/>
    <polygon id="159" class="fil155" points="5.26,8.23 5.18,8.23 5.18,0 5.26,0 "/>
    <polygon id="160" class="fil156" points="5.21,8.23 5.13,8.23 5.13,0 5.21,0 "/>
    <polygon id="161" class="fil157" points="5.16,8.23 5.08,8.23 5.08,0 5.16,0 "/>
    <polygon id="162" class="fil158" points="5.1,8.23 5.02,8.23 5.02,0 5.1,0 "/>
    <polygon id="163" class="fil159" points="5.05,8.23 4.97,8.23 4.97,0 5.05,0 "/>
    <polygon id="164" class="fil160" points="5,8.23 4.92,8.23 4.92,0 5,0 "/>
    <polygon id="165" class="fil161" points="4.94,8.23 4.86,8.23 4.86,0 4.94,0 "/>
    <polygon id="166" class="fil162" points="4.89,8.23 4.81,8.23 4.81,0 4.89,0 "/>
    <polygon id="167" class="fil163" points="4.84,8.23 4.76,8.23 4.76,0 4.84,0 "/>
    <polygon id="168" class="fil164" points="4.78,8.23 4.7,8.23 4.7,0 4.78,0 "/>
    <polygon id="169" class="fil165" points="4.73,8.23 4.65,8.23 4.65,0 4.73,0 "/>
    <polygon id="170" class="fil166" points="4.68,8.23 4.6,8.23 4.6,0 4.68,0 "/>
    <polygon id="171" class="fil167" points="4.62,8.23 4.54,8.23 4.54,0 4.62,0 "/>
    <polygon id="172" class="fil168" points="4.57,8.23 4.49,8.23 4.49,0 4.57,0 "/>
    <polygon id="173" class="fil169" points="4.51,8.23 4.43,8.23 4.43,0 4.51,0 "/>
    <polygon id="174" class="fil170" points="4.46,8.23 4.38,8.23 4.38,0 4.46,0 "/>
    <polygon id="175" class="fil171" points="4.41,8.23 4.33,8.23 4.33,0 4.41,0 "/>
    <polygon id="176" class="fil172" points="4.35,8.23 4.27,8.23 4.27,0 4.35,0 "/>
    <polygon id="177" class="fil173" points="4.3,8.23 4.22,8.23 4.22,0 4.3,0 "/>
    <polygon id="178" class="fil174" points="4.25,8.23 4.17,8.23 4.17,0 4.25,0 "/>
    <polygon id="179" class="fil175" points="4.19,8.23 4.11,8.23 4.11,0 4.19,0 "/>
    <polygon id="180" class="fil176" points="4.14,8.23 4.06,8.23 4.06,0 4.14,0 "/>
    <polygon id="181" class="fil177" points="4.09,8.23 4.01,8.23 4.01,0 4.09,0 "/>
    <polygon id="182" class="fil178" points="4.03,8.23 3.95,8.23 3.95,0 4.03,0 "/>
    <polygon id="183" class="fil179" points="3.98,8.23 3.9,8.23 3.9,0 3.98,0 "/>
    <polygon id="184" class="fil180" points="3.93,8.23 3.85,8.23 3.85,0 3.93,0 "/>
    <polygon id="185" class="fil181" points="3.87,8.23 3.79,8.23 3.79,0 3.87,0 "/>
    <polygon id="186" class="fil182" points="3.82,8.23 3.74,8.23 3.74,0 3.82,0 "/>
    <polygon id="187" class="fil183" points="3.77,8.23 3.69,8.23 3.69,0 3.77,0 "/>
    <polygon id="188" class="fil184" points="3.71,8.23 3.63,8.23 3.63,0 3.71,0 "/>
    <polygon id="189" class="fil185" points="3.66,8.23 3.58,8.23 3.58,0 3.66,0 "/>
    <polygon id="190" class="fil186" points="3.61,8.23 3.53,8.23 3.53,0 3.61,0 "/>
    <polygon id="191" class="fil187" points="3.55,8.23 3.47,8.23 3.47,0 3.55,0 "/>
    <polygon id="192" class="fil188" points="3.5,8.23 3.42,8.23 3.42,0 3.5,0 "/>
    <polygon id="193" class="fil189" points="3.45,8.23 3.37,8.23 3.37,0 3.45,0 "/>
    <polygon id="194" class="fil190" points="3.39,8.23 3.31,8.23 3.31,0 3.39,0 "/>
    <polygon id="195" class="fil191" points="3.34,8.23 3.26,8.23 3.26,0 3.34,0 "/>
    <polygon id="196" class="fil192" points="3.28,8.23 3.2,8.23 3.2,0 3.28,0 "/>
    <polygon id="197" class="fil193" points="3.23,8.23 3.15,8.23 3.15,0 3.23,0 "/>
    <polygon id="198" class="fil194" points="3.18,8.23 3.1,8.23 3.1,0 3.18,0 "/>
    <polygon id="199" class="fil195" points="3.12,8.23 3.04,8.23 3.04,0 3.12,0 "/>
    <polygon id="200" class="fil196" points="3.07,8.23 2.99,8.23 2.99,0 3.07,0 "/>
    <polygon id="201" class="fil197" points="3.02,8.23 2.94,8.23 2.94,0 3.02,0 "/>
    <polygon id="202" class="fil198" points="2.96,8.23 2.88,8.23 2.88,0 2.96,0 "/>
    <polygon id="203" class="fil199" points="2.91,8.23 2.83,8.23 2.83,0 2.91,0 "/>
    <polygon id="204" class="fil200" points="2.86,8.23 2.78,8.23 2.78,0 2.86,0 "/>
    <polygon id="205" class="fil201" points="2.8,8.23 2.72,8.23 2.72,0 2.8,0 "/>
    <polygon id="206" class="fil202" points="2.75,8.23 2.67,8.23 2.67,0 2.75,0 "/>
    <polygon id="207" class="fil203" points="2.7,8.23 2.62,8.23 2.62,0 2.7,0 "/>
    <polygon id="208" class="fil204" points="2.64,8.23 2.56,8.23 2.56,0 2.64,0 "/>
    <polygon id="209" class="fil205" points="2.59,8.23 2.51,8.23 2.51,0 2.59,0 "/>
    <polygon id="210" class="fil206" points="2.54,8.23 2.46,8.23 2.46,0 2.54,0 "/>
    <polygon id="211" class="fil207" points="2.48,8.23 2.4,8.23 2.4,0 2.48,0 "/>
    <polygon id="212" class="fil208" points="2.43,8.23 2.35,8.23 2.35,0 2.43,0 "/>
    <polygon id="213" class="fil209" points="2.38,8.23 2.3,8.23 2.3,0 2.38,0 "/>
    <polygon id="214" class="fil210" points="2.32,8.23 2.24,8.23 2.24,0 2.32,0 "/>
    <polygon id="215" class="fil211" points="2.27,8.23 2.19,8.23 2.19,0 2.27,0 "/>
    <polygon id="216" class="fil211" points="2.22,8.23 2.13,8.23 2.13,0 2.22,0 "/>
    <polygon id="217" class="fil212" points="2.16,8.23 2.08,8.23 2.08,0 2.16,0 "/>
    <polygon id="218" class="fil213" points="2.11,8.23 2.03,8.23 2.03,0 2.11,0 "/>
    <polygon id="219" class="fil214" points="2.05,8.23 1.97,8.23 1.97,0 2.05,0 "/>
    <polygon id="220" class="fil215" points="2,8.23 1.92,8.23 1.92,0 2,0 "/>
    <polygon id="221" class="fil216" points="1.95,8.23 1.87,8.23 1.87,0 1.95,0 "/>
    <polygon id="222" class="fil217" points="1.89,8.23 1.81,8.23 1.81,0 1.89,0 "/>
    <polygon id="223" class="fil218" points="1.84,8.23 1.76,8.23 1.76,0 1.84,0 "/>
    <polygon id="224" class="fil219" points="1.79,8.23 1.71,8.23 1.71,0 1.79,0 "/>
    <polygon id="225" class="fil220" points="1.73,8.23 1.65,8.23 1.65,0 1.73,0 "/>
    <polygon id="226" class="fil221" points="1.68,8.23 1.6,8.23 1.6,0 1.68,0 "/>
    <polygon id="227" class="fil222" points="1.63,8.23 1.55,8.23 1.55,0 1.63,0 "/>
    <polygon id="228" class="fil223" points="1.57,8.23 1.49,8.23 1.49,0 1.57,0 "/>
    <polygon id="229" class="fil224" points="1.52,8.23 1.44,8.23 1.44,0 1.52,0 "/>
    <polygon id="230" class="fil225" points="1.47,8.23 1.39,8.23 1.39,0 1.47,0 "/>
    <polygon id="231" class="fil226" points="1.41,8.23 1.33,8.23 1.33,0 1.41,0 "/>
    <polygon id="232" class="fil227" points="1.36,8.23 1.28,8.23 1.28,0 1.36,0 "/>
    <polygon id="233" class="fil228" points="1.31,8.23 1.23,8.23 1.23,0 1.31,0 "/>
    <polygon id="234" class="fil229" points="1.25,8.23 1.17,8.23 1.17,0 1.25,0 "/>
    <polygon id="235" class="fil230" points="1.2,8.23 1.12,8.23 1.12,0 1.2,0 "/>
    <polygon id="236" class="fil231" points="1.15,8.23 1.07,8.23 1.07,0 1.15,0 "/>
    <polygon id="237" class="fil232" points="1.09,8.23 1.01,8.23 1.01,0 1.09,0 "/>
    <polygon id="238" class="fil233" points="1.04,8.23 0.96,8.23 0.96,0 1.04,0 "/>
    <polygon id="239" class="fil234" points="0.99,8.23 0.9,8.23 0.9,0 0.99,0 "/>
    <polygon id="240" class="fil235" points="0.93,8.23 0.85,8.23 0.85,0 0.93,0 "/>
    <polygon id="241" class="fil236" points="0.88,8.23 0.8,8.23 0.8,0 0.88,0 "/>
    <polygon id="242" class="fil237" points="0.82,8.23 0.74,8.23 0.74,0 0.82,0 "/>
    <polygon id="243" class="fil238" points="0.77,8.23 0.69,8.23 0.69,0 0.77,0 "/>
    <polygon id="244" class="fil239" points="0.72,8.23 0.64,8.23 0.64,0 0.72,0 "/>
    <polygon id="245" class="fil240" points="0.66,8.23 0.58,8.23 0.58,0 0.66,0 "/>
    <polygon id="246" class="fil241" points="0.61,8.23 0.53,8.23 0.53,0 0.61,0 "/>
    <polygon id="247" class="fil242" points="0.56,8.23 0.48,8.23 0.48,0 0.56,0 "/>
    <polygon id="248" class="fil243" points="0.5,8.23 0.42,8.23 0.42,0 0.5,0 "/>
    <polygon id="249" class="fil244" points="0.45,8.23 0.37,8.23 0.37,0 0.45,0 "/>
    <polygon id="250" class="fil245" points="0.4,8.23 0.32,8.23 0.32,0 0.4,0 "/>
    <polygon id="251" class="fil246" points="0.34,8.23 0.26,8.23 0.26,0 0.34,0 "/>
    <polygon id="252" class="fil247" points="0.29,8.23 0.21,8.23 0.21,0 0.29,0 "/>
    <polygon id="253" class="fil248" points="0.24,8.23 0.16,8.23 0.16,0 0.24,0 "/>
    <polygon id="254" class="fil249" points="0.18,8.23 0.1,8.23 0.1,0 0.18,0 "/>
    <polygon id="255" class="fil250" points="0.13,8.23 0.05,8.23 0.05,0 0.13,0 "/>
    <polygon id="256" class="fil251" points="0.08,8.23 -0,8.23 -0,0 0.08,0 "/>
    <polygon id="257" class="fil250" points="0.02,8.23 -0.06,8.23 -0.06,0 0.02,0 "/>
    <polygon id="258" class="fil249" points="-0.03,8.23 -0,8.23 -0,0 -0.03,0 "/>
   </g>
  </g>
 </g>
</svg>
